<svg id="RGB_orange" data-name="RGB orange" xmlns="http://www.w3.org/2000/svg" xmlns:xlink="http://www.w3.org/1999/xlink" viewBox="0 0 437.24 412.37"><defs><style>.cls-1{fill:none;}.cls-2{fill:#ff582f;}.cls-3{fill:#fff;}.cls-4{clip-path:url(#clip-path);}.cls-5{fill:#231f20;}</style><clipPath id="clip-path" transform="translate(0 -0.85)"><rect class="cls-1" x="319.04" y="308.08" width="95.53" height="41.34"/></clipPath></defs><title>Kurttu-Rutku-logo-orange</title><circle class="cls-2" cx="234.05" cy="209.18" r="203.19"/><path d="M319.35,185.28l1.11-1.61a133.38,133.38,0,0,1,18.77-22.16,29.53,29.53,0,0,1,3.94-3.1,7.92,7.92,0,0,1,2.86-1.14,2.78,2.78,0,0,1,3.52,3.26,18.15,18.15,0,0,1-.94,4,69.81,69.81,0,0,1-10.52,19.21A180.28,180.28,0,0,1,325,199c-3.23,3.38-6.25,7-9.29,10.51-2.42,2.84-4.73,5.8-7.11,8.74a24.2,24.2,0,0,1-.21,13.65,23.84,23.84,0,0,1-7.63,11.17c6.57,3.1,9.51,8.76,11.49,15.14.23.71.4,1.44.62,2.16a4.41,4.41,0,0,0,.45.64c.24-1.78.45-3.31.66-4.84.34-2.39.52-4.83,1.07-7.18,1.43-6.08,3.08-12.12,6.48-17.43a37.92,37.92,0,0,1,17.54-14.92,18.45,18.45,0,0,1,5.33-1.33c2.46-.26,3.57,1.05,3.15,3.49a14.32,14.32,0,0,1-1.18,3.78c-2.08,4.32-4.16,8.64-6.43,12.85-2.58,4.77-5.37,9.43-8.06,14.14a7.72,7.72,0,0,0-.73,1.59,5.14,5.14,0,0,0,1.8-1.36,103.36,103.36,0,0,1,21-15.47,87,87,0,0,1,9.29-4.18,14.15,14.15,0,0,1,4.56-.89c2.76-.13,4,1.6,2.91,4.15a24.64,24.64,0,0,1-2.92,4.88,77,77,0,0,1-10.41,10.87,168.54,168.54,0,0,1-15.93,12.51,38.82,38.82,0,0,1-7.56,3.81c-4.53,1.88-9.16,3.54-13.38,6.08a20.32,20.32,0,0,1-1.9.85l-4.68,2.22a1.8,1.8,0,0,0-1,1.49c-2.48,16-11.66,27-25.68,34.39-2,1.07-4.16,2-6.28,2.92a2.69,2.69,0,0,0-1.31,1.49,27.32,27.32,0,0,0-2.57,15.33c.13,1.38.3,2.76.55,4.12a8.76,8.76,0,0,0,3.2,5.4,41.46,41.46,0,0,0,3.47,2.57,91.39,91.39,0,0,0,14.87,7.77,21.71,21.71,0,0,1,3.17,1.74c.76.46.74,1.13,0,1.63a9.1,9.1,0,0,1-1.88.85c-11.64,4-23.55,6.64-35.91,6.8-1.06,0-2.19.3-3.18-.48,0-.89.72-1,1.3-1.16,1.5-.44,3-.82,4.5-1.28,3.86-1.18,7.68-2.52,11.59-3.54,4.06-1.08,8.2-1.86,12.35-2.78a2.33,2.33,0,0,0-.6-.44c-1.56-.6-3.15-1.14-4.7-1.75-5.54-2.18-10.51-5.09-13.47-10.7l-1.67,1.15c-8.15,5.57-16.28,11.17-24.46,16.69a11.54,11.54,0,0,1-3.17,1.26c-.34.1-.81-.22-1.22-.35a3.11,3.11,0,0,1,.43-1.2c1.12-1.16,2.3-2.28,3.5-3.35q8.48-7.56,17-15.08l1.92-1.72a13.3,13.3,0,0,0-.92-1c-1.55-1.39-3.16-2.71-4.66-4.15a27,27,0,0,1-6.7-9.77c-.25-.64-.6-1.23-1-1.95a32.65,32.65,0,0,1-12.51-1c-.05.84-.12,1.46-.1,2.07q.28,11.08.6,22.16c.06,2.48.14,5,.17,7.45a14.09,14.09,0,0,1-2.11,7.23,7.29,7.29,0,0,1-4.17,3.46c-1.48.48-3,.77-4.52,1.18C221.47,364,214.24,366,207,367.92c-4.74,1.24-9.51,2.36-14.29,3.47a6.16,6.16,0,0,1-4.07-.39c-1.68-.81-2-2-.91-3.48a10.07,10.07,0,0,1,4-3.17,11.7,11.7,0,0,0,2.58-1.42c-2.09.28-4.18.54-6.26.85a31.68,31.68,0,0,1-11.52-.66,7.88,7.88,0,0,1-.83-.24c-1.82-.67-2.09-1.58-.91-3.12.38-.49.79-1,1.36-1.67-.63.12-1,.16-1.36.26a71,71,0,0,1-15.06,2.13c-2.82.17-5.65.26-8.48.25a7.37,7.37,0,0,1-3-.67c-1.39-.63-1.66-1.68-.89-3a9.48,9.48,0,0,1,4.52-4.15c1.7-.7,3.49-1.17,5.25-1.72a4,4,0,0,0,1.5-.64c-.45,0-.9,0-1.35,0-5,.26-9.91.54-14.87.81-1.09.06-2.19.11-3.29.12a5.27,5.27,0,0,1-1.37-.13c-1.65-.37-2-1.35-.84-2.56a7,7,0,0,1,1.74-1.42,42.41,42.41,0,0,1,6.95-3.45c5.39-1.7,10.87-3.11,16.34-4.5,3.47-.88,7-1.65,10.5-2.21,2.73-.42,5.52-.48,8.28-.63,2.42-.14,4.85-.17,7.27-.26.57,0,1.13-.12,1.88-.2.25-2.34.52-4.61.74-6.89a69.2,69.2,0,0,0-.5-13.65c-.67-6.78-1.31-13.56-2-20.34-.07-.68-.15-1.35-.24-2.18-2,.62-3.86,1.21-5.72,1.75-1.27.37-2.55.72-3.85,1s-2-.32-1.82-1.7a12,12,0,0,1,.55-2.35,5.68,5.68,0,0,0-1.54-6.26,7.61,7.61,0,0,0-6.79-2.5c-9.56.66-18.81,2.87-28.11,4.9-7.61,1.67-15.23,3.3-22.87,4.81-3,.6-6.18.81-9.26,1.24A41.35,41.35,0,0,0,91,300.58c-2.26,1.5-4.56,2.94-6.93,4.26-2.79,1.56-4.15.66-4-2.5a6.54,6.54,0,0,1,2.57-4.9c.56-.46,1.06-1,1.81-1.67-.9-.36-1.51-.68-2.15-.86-2.45-.67-4.91-1.3-7.37-1.94A48,48,0,0,1,63.4,288.4a29.05,29.05,0,0,1-4.28-2.91c-2-1.64-1.9-3.34.24-4.81a19.54,19.54,0,0,1,4.26-2.26c3.08-1.16,6.22-2.13,9.35-3.15a25.36,25.36,0,0,1,2.83-.81,10.53,10.53,0,0,0,5.71-3.39c3.9-4.33,7.83-8.64,11.64-13.05,4.68-5.42,9.2-11,13.87-16.41,7-8.11,14.52-15.66,22.17-23.12,4.17-4.08,8.21-8.29,12.24-12.5a56.82,56.82,0,0,0,4.06-5,7.78,7.78,0,0,0,1.48-4.16,23.59,23.59,0,0,1,1.21-5.21c.7-2.07,1.58-4.09,2.43-6.11a61.23,61.23,0,0,0,4.56-14.85,8.22,8.22,0,0,1,.67-2.32c.33-.73,1-.75,1.49-.08a6.08,6.08,0,0,1,.76,1.73c1.16,4,2.29,8,3.42,12a56.35,56.35,0,0,0,4.6,11.74c.25.45.51.89.68,1.18a35.12,35.12,0,0,1,6.14-.33,32.71,32.71,0,0,1,5.58,1.64l8.32-16.07-2.61-6.64-1.88.72a11.86,11.86,0,0,1-6.62.81,8.91,8.91,0,0,1-2.72-1,3.16,3.16,0,0,1-1.61-3.82c.11-.5.22-1,.34-1.59-.84-.36-1.63-.66-2.4-1-4.15-2-5.12-6.1-2.3-9.74l.87-1.13c-1.05-2.23-2.1-4.34-3-6.5a6,6,0,0,1-.06-5.37c-.83-.07-1.5-.1-2.15-.19a18.31,18.31,0,0,1-3.06-.54,2.7,2.7,0,0,1-1.66-3.9,4.32,4.32,0,0,1,4-2.74c2.19-.13,4.38-.31,6.57-.47.45,0,.9-.11,1.47-.18a11,11,0,0,0,.08-1.36q-.84-11.92-1.7-23.83-1.05-14.5-2.09-29-.87-12.16-1.75-24.34-1.14-15.9-2.32-31.78c-.08-1.09-.13-2.19-.26-3.27a13.8,13.8,0,0,1,1-7.25c2-4.61,3.69-9.33,5.52-14A12.6,12.6,0,0,1,169,.85a7.19,7.19,0,0,1,1,1q5.08,7.34,10.12,14.69a3,3,0,0,1,.43,1.45q.54,7.59,1,15.2.87,13,1.73,25.91l2.07,31.1q1,15.63,2.09,31.27c.27,4.09.51,8.18.78,12.27a14.12,14.12,0,0,0,.26,1.42c1.54-.11,3-.24,4.4-.32,1.67-.08,3.34-.22,5-.17,2.26.07,3.35.93,3.72,2.67.51,2.38-.18,4.24-2,5.26-.6.33-1.25.55-1.95.86.82.49,1.59.89,2.28,1.39a2.8,2.8,0,0,1,1.25,2.67,42.46,42.46,0,0,0-.19,6.37,62.43,62.43,0,0,0,3.42,17.1,22.33,22.33,0,0,0,1.77,3.73,8.12,8.12,0,0,0,6.74,4,21.85,21.85,0,0,0,7.88-.85,42.06,42.06,0,0,0,10.23-4.61,18.9,18.9,0,0,0,4.8-4.2,58,58,0,0,0,3.95-5,19.77,19.77,0,0,1,2.87-3.46,67.78,67.78,0,0,1,16.58-12.67,12.15,12.15,0,0,0,1.62-1c1.51-1.12,1.73-1.71,1.41-3.83l-1.6-.53c-1.23,2.28-3.27,2.63-5.51,2.54a27.52,27.52,0,0,1-9.75-2.16c-2.89-1.22-4.52-3.3-4.49-6.53,0-.34,0-.69-.07-1a1.61,1.61,0,0,0-.15-.34,2.08,2.08,0,0,0-.41-.27c-8.35-2.89-16.36-6.63-24.48-10.09-2.18-.93-4.39-1.76-6.6-2.61-1.46-.57-1.79-1.3-1-2.65A20.88,20.88,0,0,1,210,117a10.09,10.09,0,0,1,1.18-1.27c7.5-6.87,15.31-13.36,24.17-18.46A75,75,0,0,1,250.16,91c.71-.23,1.41-.49,2.33-.81a8.1,8.1,0,0,0-1-.68c-2.06-.92-4.1-1.85-6.18-2.69a1.9,1.9,0,0,1-1.41-1.58,13,13,0,0,1,.08-3.75A11.53,11.53,0,0,1,245.5,78a70.36,70.36,0,0,1,9.77-12.33,34.47,34.47,0,0,1,9-6.46c2-1,3.93-2.17,5.86-3.32a1.52,1.52,0,0,1,2,.17,10.66,10.66,0,0,1,1.21,1.46l12.2,16.83c.41.56.82,1.1,1.27,1.72,9.17-2.71,17.95-.87,26.72,2.25a10.36,10.36,0,0,0,.4-1.28c.29-1.35.56-2.71.8-4.08a16.83,16.83,0,0,1,8.2-11.86,46.1,46.1,0,0,1,11-4.65,48,48,0,0,1,17.25-2.24,15.5,15.5,0,0,1,4.18,1,5.84,5.84,0,0,1,3.67,4.3c.88,3.37.14,6.52-1.16,9.61-.53,1.27-1.07,2.53-1.7,4,.65-.11,1-.2,1.41-.23,1.32-.1,2.64-.27,4-.24,4.21.08,6.56,1.59,7.08,6.59a25.71,25.71,0,0,1-2.11,13.53,18,18,0,0,1-6.31,7.44l-1.56,1.09,1.27.44a6.78,6.78,0,0,1,3.92,9.33,12.46,12.46,0,0,1-1.78,2.75c-2.1,2.46-4.29,4.84-6.44,7.25-.42.48-.9.9-1.27,1.41-.84,1.15-.63,2,.76,2.33a6,6,0,0,0,2.87.18,17.84,17.84,0,0,0,3.47-1.48c.57-.27,1.07-.71,1.65-.94a1.27,1.27,0,0,1,1.1.07c.2.19.13.71.09,1.08a1.62,1.62,0,0,1-.3.62,22.28,22.28,0,0,1-6.49,6.87c-4.06,2.64-8.39,2.66-12.8,1.22a5.82,5.82,0,0,1-4-5c-.17-1.06-.18-2.15-.28-3.35a5.27,5.27,0,0,0-.62.38,18.79,18.79,0,0,1-7.57,3.66c-5.28,1.27-7.8-.93-9.15-5.62a7.22,7.22,0,0,1,.31-4.76c.19-.46.37-.93.65-1.66-.54.24-.82.38-1.12.5-1.48.6-2.46.33-3.16-1.11a27.86,27.86,0,0,1-1.19-3.45c-.68.58-1.39,1.15-2,1.77a1.26,1.26,0,0,0-.33.74c-.16,2.22-1.66,3.4-3.46,4.15a3.42,3.42,0,0,0-2,2.15c-1.46,3.55-1.7,7.28-1.77,11,0,1,0,2,0,2.95a4.43,4.43,0,0,1-2.66,4.46,14.2,14.2,0,0,1-2.41.95,1.84,1.84,0,0,0-1.36,1.37,110.79,110.79,0,0,0-5.19,28c-.18,3.17-.42,6.33-.62,9.5a7.18,7.18,0,0,0,.06.82c2.25.49,2.33.49,2.36,2.89s-.12,4.61-.21,6.92c-.09,2-.21,4-.3,6.05a4.42,4.42,0,0,0,.05,1.21c.95,4.1,1.77,8.25,3.71,12a17.32,17.32,0,0,0,1.71,2.8c.69.91,1.53,1.7,2.56,2.8,0-.71.1-1.12.09-1.53-.12-4.39-.47-8.78-.35-13.16a118.31,118.31,0,0,1,5.83-35.05c3.73-11,11.15-18.69,21.32-23.95a11,11,0,0,1,1.26-.56c1.45-.52,2.5.13,2.35,1.67a11.59,11.59,0,0,1-1.07,4c-1.29,2.64-2.76,5.19-4.24,7.73a89.92,89.92,0,0,0-7.23,14.95c-1.91,5.32-3.59,10.72-5.36,16.09C319.22,184.88,319.29,185,319.35,185.28Zm-142,109.91c2.35-.67,4.28-1.23,6.22-1.76a35.72,35.72,0,0,0,18.07-11.91A101.77,101.77,0,0,0,212,266.78,109.44,109.44,0,0,0,223,242a10.7,10.7,0,0,0,.18-1.22,27,27,0,0,0-3-.36,33.49,33.49,0,0,0-5,.2,5.83,5.83,0,0,1-5.58-2.06,40.16,40.16,0,0,1-3.95-5.24,85.32,85.32,0,0,1-12.22-40c-.26-4.15-.17-8.31-.24-12.47a12.84,12.84,0,0,0-.1-2.24c-.11-.58-.38-1.51-.74-1.58a2.44,2.44,0,0,0-1.82.6,9.66,9.66,0,0,0-2,2.17,108.59,108.59,0,0,0-8.39,15.71c-.82,1.82-1.21,2.09-3.12,1.36a8.08,8.08,0,0,1-.8-.35,10.48,10.48,0,0,0-7.58-.73c-.76.18-1.54.3-2.23.43a62.87,62.87,0,0,1-6.24-15.57c-.9-3.34-1.85-6.67-2.82-10-.14-.49-.11-1.16-.88-1.36-.13.51-.29.94-.36,1.39a61.09,61.09,0,0,1-4.94,16c-.86,2-1.66,4.06-2.35,6.13a16.61,16.61,0,0,0-.92,4.21,8,8,0,0,1-1.58,4.49,49.57,49.57,0,0,1-3.82,4.7c-4.56,4.75-9.1,9.52-13.83,14.09a383.34,383.34,0,0,0-28.34,30.61c-5.46,6.57-11.15,12.95-16.74,19.41a14.94,14.94,0,0,1-9,5.44,4.84,4.84,0,0,0-.83.22c-3.5,1.18-7,2.3-10.48,3.58a14.85,14.85,0,0,0-3.59,2c-1.33,1-1.36,1.9-.13,3A21.77,21.77,0,0,0,62.9,287a48.82,48.82,0,0,0,13,5.21c2.29.58,4.58,1.17,6.86,1.8a6.75,6.75,0,0,1,1.75.73,1.17,1.17,0,0,1,.36,1.91,10.82,10.82,0,0,1-1.64,1.52,5.59,5.59,0,0,0-2.15,4.86c.09,1.58.54,1.88,2,1.3a8.43,8.43,0,0,0,1.08-.55c2.16-1.33,4.36-2.61,6.46-4A43,43,0,0,1,109,292.91c3.78-.51,7.59-.84,11.31-1.59,8.48-1.72,16.93-3.62,25.37-5.51a140,140,0,0,1,23.92-3.71A29.66,29.66,0,0,0,184,277.42a14.93,14.93,0,0,0,7.35-11.53,3.68,3.68,0,0,1,.42-.9c.49,1,.52,1,.43,1.52-.62,4-2.2,7.52-5.48,10.08a31.14,31.14,0,0,1-11.08,5.54l-1.68.46c1.1,1.13,2,2.15,3,3.09a4.76,4.76,0,0,1,1.43,4.73c-.17.85-.43,1.68-.61,2.52C177.62,293.53,177.55,294.14,177.39,295.19Zm31.75-3.34.27-.13a6.21,6.21,0,0,1,.75.79,18,18,0,0,1,2.59,6.38,151.83,151.83,0,0,1,2.54,18.52,116,116,0,0,1-.46,20.75A22.84,22.84,0,0,1,213,346c-1,2-1.38,2.14-3.52,1.88a60.26,60.26,0,0,0-7.56-.65c-5.5.07-10.47,2.16-15.28,4.61a47.85,47.85,0,0,0-9.92,7.21,3.88,3.88,0,0,0-1.63,2.35,5.05,5.05,0,0,0,.62.41,5.68,5.68,0,0,0,1,.34,28.69,28.69,0,0,0,9.45.83c4.13-.47,8.24-1.09,12.35-1.66,2.63-.36,5.26-.77,7.89-1.11.61-.08,1.35-.42,2,.54a13.37,13.37,0,0,1-1.48.52c-1.58.33-3.19.55-4.75,1-3.17.84-6.33,1.73-9.47,2.71a8.57,8.57,0,0,0-3.94,2.73c-1.13,1.34-.95,2.19.77,2.59a9.63,9.63,0,0,0,3.59.08,62,62,0,0,0,6.6-1.42c6.95-1.91,13.87-3.94,20.84-5.82,3.56-1,7.18-1.73,10.77-2.58a8.29,8.29,0,0,0,6.15-5.29,16.57,16.57,0,0,0,1.11-6.95c-.24-6-.5-12-.69-18s-.38-12.24.57-18.32c.84-5.36,1.78-10.7,2.69-16.05.07-.42,0-1,1-1-.56,3.87-1.37,7.6-2,11.36a90.23,90.23,0,0,0-1.38,11.75c4.1.56,8,1.17,12.14.3-.07-.5-.1-.84-.18-1.16a47.57,47.57,0,0,1-1.34-11.15,124.42,124.42,0,0,1,1.18-16.92,29.93,29.93,0,0,1,4.57-12.95c1.65-2.51,3.33-5,5-7.49.32-.47.61-.95.92-1.46-15-4.17-20.43-8.33-28-22.11a19.14,19.14,0,0,1-9.28-2.33,5.6,5.6,0,0,0-.35.73,99.05,99.05,0,0,1-5.57,14,113.07,113.07,0,0,1-15.72,24.8A38.29,38.29,0,0,1,190,292c-.29.15-.55.36-.82.53,4.41,7.05,18.69,18.86,24.74,20.4-.06-.79-.1-1.52-.19-2.24-.19-1.49-.36-3-.61-4.46-.79-4.65-1.18-9.43-3.86-13.55C209.11,292.5,209.18,292.14,209.14,291.85ZM362.78,124c-1.25.62-2.3,1.23-3.42,1.69a6.07,6.07,0,0,1-5-.06c-1.59-.73-2-1.92-1-3.37a14.58,14.58,0,0,1,1.46-1.7c2.15-2.41,4.34-4.79,6.44-7.25a13.18,13.18,0,0,0,1.77-2.75,5.21,5.21,0,0,0-1-6.09c-1.52-1.73-3.3-2.45-5.55-1.58-.47.18-1,.43-1.44-.25.39-1.08,1.47-1.38,2.34-1.82,9.59-4.83,11.22-15.31,10-22.75-.46-2.83-2-4.07-4.83-4.33a13.36,13.36,0,0,0-5.82.44c-1.28.45-1.72,0-1.43-1.33a5.74,5.74,0,0,1,.38-1.15c.46-1.12,1-2.23,1.43-3.34a14.51,14.51,0,0,0,1.23-7.09c-.33-3.21-1.75-5-4.9-5.66a24.06,24.06,0,0,0-5.49-.46,53.16,53.16,0,0,0-21.38,5.19,30.55,30.55,0,0,0-5.42,3.35,13.62,13.62,0,0,0-5,7.7c-.62,2.44-1.06,4.92-1.52,7.1C316.83,80,319,81.29,321,82.9c3.78,3.13,5,7.25,3.8,12-.78,3.13-1.68,6.23-2.62,9.32-.48,1.6-1.18,3.13-1.76,4.69a7,7,0,0,0,.13,6c.56,1,1.12,1.18,2.13.64.36-.19.65-.5,1-.65s.95-.31,1.07-.16a1.72,1.72,0,0,1,.31,1.22,4.71,4.71,0,0,1-.51,1.46,7.26,7.26,0,0,0,.19,6.82c1.28,2.55,2.86,3.49,5.73,3.15a17.16,17.16,0,0,0,8.51-3.6,4.2,4.2,0,0,0,1.81-3.21,4,4,0,0,1,.46-1.14c.88.42.57,1,.55,1.46-.07,2.18-.62,4.35-.14,6.55a5.28,5.28,0,0,0,3.52,4.15C351.76,134,359.77,130.62,362.78,124ZM208.7,120.66c1.22.46,2.24.8,3.23,1.23,5.15,2.19,10.28,4.41,15.42,6.62,8.65,3.71,17.43,7.06,26.65,9.06a68.56,68.56,0,0,1,6.75,1.45,23.4,23.4,0,0,0,9.39,1A122.73,122.73,0,0,0,288.2,137c2.57-.61,5.1-1.36,7.49-2,.24-4,.34-7.84.72-11.61s1.92-7.3,3.37-10.82c-.67-.34-1.13-.59-1.59-.81-13.48-6.43-27-12.8-40.41-19.36a9.14,9.14,0,0,0-7.65-.43,80.87,80.87,0,0,0-19.58,9.41,172.59,172.59,0,0,0-17,13.42,45.11,45.11,0,0,0-3.79,4A11.69,11.69,0,0,0,208.7,120.66Zm61.11,195.47A30.48,30.48,0,0,1,275.33,304a41.27,41.27,0,0,1,9.17-8.87,16.13,16.13,0,0,1,11-3.29,4.64,4.64,0,0,1,3.29,1.5c1.38,1.45,1.45,2.86-.06,4.18a14.46,14.46,0,0,1-3,2,46.46,46.46,0,0,0-8.87,5.68,37.82,37.82,0,0,0-4.17,4.13,19.68,19.68,0,0,0-1.77,2.93,3.93,3.93,0,0,0,.81-.14c3.22-1.66,6.59-3.11,9.64-5.05,16.63-10.58,23.43-27.68,20.52-46.12a26,26,0,0,0-6.76-13.78,10.32,10.32,0,0,0-4-2.73,2.9,2.9,0,0,0-2.9.34c-2.12,1.39-4.31,2.69-6.54,3.88a4.23,4.23,0,0,0-1.87,1.87,55.42,55.42,0,0,1-8.71,12.65A14.35,14.35,0,0,1,271,268a2.84,2.84,0,0,0-1.67.67,29.53,29.53,0,0,0-7.68,10.55c-5.22,12.31-5.87,24.79-1.42,37.46.13.37.33.72.5,1.11A23,23,0,0,0,269.81,316.13ZM230.37,181.64c0,2.26.1,4.16,0,6.06-.7,10.59-1.48,21.18-2.19,31.77a37.87,37.87,0,0,0,.43,10.52,59,59,0,0,0,12.21,24.93,26,26,0,0,0,10.48,7.75c2.18.9,4.38,1.78,6.63,2.51A40.85,40.85,0,0,0,270,267a13.27,13.27,0,0,0,10.42-4.58,48,48,0,0,0,12.1-23c1.53-7.29,2.37-14.68,3.21-22.07,1.25-11.07,2-22.18,2.44-33.3,0-1-.08-1.91-.14-3Zm-61-178.82c-.22.43-.35.62-.43.83-1.92,4.95-3.86,9.89-5.74,14.86a5.56,5.56,0,0,0-.28,2.19c.18,3.05.43,6.1.64,9.15.4,5.64.77,11.28,1.18,16.92.64,8.92,1.31,17.84,2,26.76.39,5.53.75,11,1.15,16.58q1,13.47,2,26.93c.4,5.53.76,11,1.15,16.58.08,1,.24,2,.38,3.15L179,136c0-.46,0-.68,0-.9q-.91-12.18-1.84-24.34c-.39-5.18-.75-10.36-1.15-15.54q-1-12.76-2-25.54c-.39-5.06-.74-10.13-1.13-15.19q-.83-11-1.69-21.92c-.28-3.57-.58-7.13-.86-10.7s-.56-7.36-.82-11c0-.52-.31-1.17.69-1.6a15.89,15.89,0,0,1,.36,1.77c.38,4.89.73,9.78,1.11,14.67.75,9.72,1.53,19.44,2.27,29.16.53,6.85,1,13.7,1.53,20.54.86,11.16,1.76,22.32,2.62,33.48.64,8.4,1.25,16.81,1.88,25.21,0,.6.2,1.2.31,1.86l6.95-.68c0-.7,0-1.26,0-1.82-.09-1.5-.21-3-.31-4.49q-.87-12.87-1.72-25.74-1.05-15.72-2.09-31.44-.87-12.87-1.72-25.74c-.6-9.09-1.21-18.19-1.78-27.29a4.53,4.53,0,0,0-.83-2.39c-2.83-4.08-5.63-8.18-8.45-12.26C170.05,3.69,169.76,3.35,169.36,2.82Zm94.2,140.63c.18,2.84-1.65,4.14-3.71,5.2a64.28,64.28,0,0,0-16.07,12.2,31.19,31.19,0,0,0-4.44,5.72c-2.69,4.38-2.94,9.1-1.45,14l40.95-.32c2-4.22,2.67-8.65,3.82-13a1.2,1.2,0,0,1,.33.79,41.36,41.36,0,0,1-2.85,12.06h15.5c.11-1.42.2-2.67.3-3.93.41-5.12.74-10.25,1.27-15.36A89.15,89.15,0,0,1,301.12,143c.2-.63.32-1.29.48-2a14.61,14.61,0,0,1-2.9-.3,13.08,13.08,0,0,1-2.48-1.42,34.29,34.29,0,0,1-10.07,3.15c-2.1.39-4.2.78-6.31,1.07-4.47.63-8.94,1.17-13.45.49C265.49,143.82,264.6,143.64,263.56,143.45Zm7.57-86.8c-2.22,1.2-4.27,2.37-6.38,3.41a33.08,33.08,0,0,0-8.81,6.33,70.74,70.74,0,0,0-9.56,12,10.78,10.78,0,0,0-1.4,3,13.39,13.39,0,0,0-.26,3.24c0,.63.39,1,1,1.24,3.58,1.58,7.15,3.17,10.68,4.84q14.07,6.66,28.12,13.39,9,4.28,17.94,8.58c1.48.71,3,1.39,4.22,2l2.86-4.64C307.52,106.32,272.72,57.92,271.13,56.65ZM167.89,350.06l-.08.47a5.52,5.52,0,0,1-2.94.62,47.66,47.66,0,0,0-10.4,1.71,10.44,10.44,0,0,0-5.21,3.25c-.59.74-1.64,1.44-1.15,2.51s1.64,1.16,2.71,1.18c.35,0,.69,0,1,0,3.4-.13,6.82-.12,10.21-.45,3.78-.37,7.56-.9,11.29-1.64a19.28,19.28,0,0,0,8.12-3.67,41,41,0,0,1,14.13-6.76,25.15,25.15,0,0,1,10.46-.81,9.1,9.1,0,0,0,1.2,0c0-11.48.59-22.86,2.84-34.07-8.3-4.44-14.44-11.09-20.87-17.81,0,.85,0,1.42,0,2,.28,3.28.55,6.56.88,9.83.45,4.66,1,9.3,1.42,14a69.66,69.66,0,0,1-.62,15.2c-.14,1.21-.59,1.58-2,1.67-2.07.12-4.16.09-6.23.23-4,.27-8.08.4-12.07,1a94.66,94.66,0,0,0-10.46,2.38c-4.85,1.27-9.69,2.61-14.49,4.06a22.15,22.15,0,0,0-6.89,3.56,23,23,0,0,0-1.84,1.77,14.71,14.71,0,0,0,2.07.3c1.32,0,2.65,0,4-.14,6.74-.62,13.49-.78,20.25-.74,1.15,0,2.31,0,3.46.09A5.23,5.23,0,0,1,167.89,350.06Zm68.6-179.9c-1.62,1.27-3.2,2.72-5,3.87a39.44,39.44,0,0,1-10.21,4.64,23.75,23.75,0,0,1-7.86,1,9.35,9.35,0,0,1-8.35-5,27.07,27.07,0,0,1-2-4.6A67.63,67.63,0,0,1,200,152.38a28.85,28.85,0,0,1,.25-4.82,1.82,1.82,0,0,0-.79-1.94,13.53,13.53,0,0,0-2.43-1.3,23.85,23.85,0,0,0-12.77-1.08A8.47,8.47,0,0,0,182,144a7.75,7.75,0,0,0-4,4.56,1.8,1.8,0,0,0,1.34,2.67,7.84,7.84,0,0,0,2,.33c3.46.12,6.92.18,10.38.28.53,0,1.15-.2,1.73.61-2.09.76-4.19,0-6.19.58.1.92.16,1.77.28,2.62.5,3.48.67,7,2,10.33.53,1.28.19,2-1,2.77-.28.19-.59.35-.93.55.54,2-1.08,2.7-2.28,3.65.1,2.31,1.25,4.17,2.16,6.35a18.71,18.71,0,0,1,1.28-1.38,11.56,11.56,0,0,1,2.14-1.71,1.72,1.72,0,0,1,2.79,1.19,11.42,11.42,0,0,1,.34,2.74c.06,3.86.1,7.73.08,11.6a4,4,0,0,0,1.19,2.93,20.67,20.67,0,0,0,11,6.09,56.07,56.07,0,0,0,12.4,1,15,15,0,0,0,8.79-2.7,2.34,2.34,0,0,0,1.17-1.94c.17-3.05.46-6.1.62-9.15.11-1.95.09-3.92.08-5.87,0-1,.2-1.33,1.29-1.4,1.32-.09,2.65-.07,4-.09h2a52.08,52.08,0,0,1-.61-5.34A50,50,0,0,1,236.49,170.16Zm-3.92,73.89c-.35-.77-.58-1.29-.83-1.8-3.27-6.81-5.22-13.9-4.64-21.57.47-6,.81-12.09,1.21-18.13.05-.84.08-1.67.13-2.61a3.33,3.33,0,0,0-.71.21c-3,2.24-6.57,2.76-10.2,2.65a91.58,91.58,0,0,1-9.65-.76,21.9,21.9,0,0,1-12.47-5.89,11,11,0,0,0-1-.72c.07.88.06,1.51.17,2.13.64,3.69,1.19,7.4,2,11.07a76.77,76.77,0,0,0,10.22,24.84,34.09,34.09,0,0,0,3.88,4.85,4.42,4.42,0,0,0,4.08,1.36,30.86,30.86,0,0,1,9.15.25,1.69,1.69,0,0,1,.54.3c-.09.57-.16,1.06-.24,1.57A14.79,14.79,0,0,0,232.57,244.05Zm83.5-131.29a8.8,8.8,0,0,0,3-3.42,65.4,65.4,0,0,0,5-15.61,10.07,10.07,0,0,0-3.34-9.84,21.27,21.27,0,0,0-5.42-3.68,46.3,46.3,0,0,0-10-3.34A38.54,38.54,0,0,0,291.35,76a8.85,8.85,0,0,0-3.79,1.15c7.74,10.9,15.41,21.7,23.11,32.56C313.74,108.48,315,110.49,316.07,112.76Zm-2.58,159.36c.37-.43.57-.63.72-.85a124.72,124.72,0,0,1,10.93-13.63,16.21,16.21,0,0,0,1.95-2.64c4.47-7.68,9-15.34,13.31-23.09,1.86-3.32,3.4-6.81,5-10.26a13.51,13.51,0,0,0,1-3.13c.29-1.43-.28-2.12-1.75-2.06a13.12,13.12,0,0,0-3.22.57,29.26,29.26,0,0,0-8.16,4.11A43.64,43.64,0,0,0,320,236a17.7,17.7,0,0,0-1.41,3.33,89.19,89.19,0,0,0-3.88,17.36C314.2,261.74,313.56,266.75,313.49,272.12Zm.78.83.21.27a11.24,11.24,0,0,0,1.19-.45c.71-.38,1.36-.88,2.1-1.21,4.73-2.14,9.47-4.25,14.21-6.38,1-.45,2-.88,3-1.35a64.77,64.77,0,0,0,10.94-7,127,127,0,0,0,16.7-14.54,86.91,86.91,0,0,0,5.6-6.81,10.57,10.57,0,0,0,1.51-3.09c.37-1.17-.09-1.82-1.31-1.89a9.65,9.65,0,0,0-3.08.26,45.35,45.35,0,0,0-5.86,2.08,90.26,90.26,0,0,0-21.13,13.74A134.37,134.37,0,0,0,326,258.51a146.43,146.43,0,0,0-10.37,12.31C315.15,271.5,314.73,272.24,314.27,273ZM336.05,141a16.05,16.05,0,0,0-1.78.65,45.57,45.57,0,0,0-12.4,9,40.72,40.72,0,0,0-9.62,17.2,125.8,125.8,0,0,0-4.76,41.57c.07,1.46.22,2.91.35,4.45.21-.17.34-.22.37-.3a7.88,7.88,0,0,0,.24-.83,109.8,109.8,0,0,1,5.31-16.44,212.32,212.32,0,0,0,7.49-21,103.9,103.9,0,0,1,9.84-22.26c1.37-2.33,2.67-4.71,4-7.1a10.48,10.48,0,0,0,1-2.58A11.48,11.48,0,0,0,336.05,141Zm-27,74.19.53.35a2.66,2.66,0,0,1,.29-.64c5.14-6.14,10-12.49,15.68-18.22,2.62-2.66,5-5.61,7.45-8.41a71.47,71.47,0,0,0,11.24-16.13c1.44-2.95,2.62-6,3.83-9.07a9.29,9.29,0,0,0,.54-2.87,1.73,1.73,0,0,0-2.15-2,6.24,6.24,0,0,0-2.57.91,31.49,31.49,0,0,0-4.07,3.2,124.73,124.73,0,0,0-17.43,20.33,66,66,0,0,0-5.82,10,113.44,113.44,0,0,0-6.32,17.56C309.76,211.87,309.42,213.55,309,215.22Zm-46.69,52.13c-3.08,4.64-6.63,9-8.78,14.24a21.55,21.55,0,0,0-1.24,4.13c-.5,2.84-.95,5.7-1.24,8.56a81,81,0,0,0-.18,18.15,29.23,29.23,0,0,0,9.58,18.86c1.5,1.35,3,2.67,4.57,4a12.38,12.38,0,0,0,1.32.84l-18.49,16.41c-1.37,1.23-2.71,2.51-4.06,3.77a4,4,0,0,0-.32.4c0,.05-.07.11-.06.16s.08.06.13.09c2.32-.63,29.1-19,31-21.29a19.7,19.7,0,0,0-1.48-1.56c-2.36-2-4.8-4-7.13-6a20.81,20.81,0,0,1-5.08-7.15,52.39,52.39,0,0,1-4.39-16.84A51.65,51.65,0,0,1,260,280.65a29.8,29.8,0,0,1,7.34-11.41,13.32,13.32,0,0,0,.94-1.13ZM301.42,353l.12-.51c-1.22-.62-2.39-1.33-3.65-1.86a93.36,93.36,0,0,1-13.47-7.07c-1.41-.89-2.75-1.91-4.07-2.94a9.64,9.64,0,0,1-3.61-5.93,37.64,37.64,0,0,1-.31-13.09c.52-3.35,2.08-6.34,3.48-9.38a20.83,20.83,0,0,1,6.68-8,55.57,55.57,0,0,1,8.78-5.52,17,17,0,0,0,2.87-1.91,1.44,1.44,0,0,0,.46-2,3.74,3.74,0,0,0-2.71-1.9,14.76,14.76,0,0,0-10.33,2.65,39,39,0,0,0-11,11.14,23.64,23.64,0,0,0-4.12,12.85c0,3.28.4,6.56.6,9.84a4.69,4.69,0,0,0,2.61,4.15,4.94,4.94,0,0,1,1.44,1.65,1.3,1.3,0,0,1-.39,2c-.58.45-1.13.94-1.71,1.43a16.8,16.8,0,0,0,6.61,7.11c2.6,1.46,5.37,2.64,8.11,3.85,1.79.79,3.66,1.4,5.49,2.13a5.73,5.73,0,0,1,1,.75c-5.13,1.05-10.06,1.86-14.88,3.1s-9.66,2.95-14.49,4.45C277.63,360,289.64,357.1,301.42,353ZM291.15,247.73a8.53,8.53,0,0,0,1.21-.47c2.05-1.29,4.14-2.53,6.13-3.89,7.25-5,10.44-11.94,9.91-20.64a12.66,12.66,0,0,0-3.91-9,10.55,10.55,0,0,1-2.28-3c-1.07-2.22-1.93-4.55-2.83-6.85-.34-.88-.53-1.81-.79-2.72a2.05,2.05,0,0,0-.47,1.16c-.6,6.2-1.14,12.41-1.81,18.6C295.33,229.88,294.26,238.82,291.15,247.73ZM300.86,113a3.91,3.91,0,0,0-.36.42c-.12.26-.22.53-.35.79-3,6.45-3.46,13.32-3.26,20.28,0,.92,0,1.85.13,2.76a2.62,2.62,0,0,0,2.87,2.61,12.23,12.23,0,0,0,6.27-1.65,3.47,3.47,0,0,0,1.83-3.29c0-1.56,0-3.12,0-4.67A26.27,26.27,0,0,1,310,120a2.59,2.59,0,0,0,.1-.61c-1.76-.94-1.75-1-2.88-2.91a2.2,2.2,0,0,0-.83-.8C304.57,114.75,302.75,113.91,300.86,113ZM177.07,147.84a15.2,15.2,0,0,0-7.95-3.17c-3.37-.25-4.64,1.35-3.59,4.53a26.22,26.22,0,0,0,3.78,7.34c3.17,4.29,7.91,4.22,12,2.73a1.6,1.6,0,0,0,1.14-1.57,5.45,5.45,0,0,0-1-3.41c-.65-.93-1.18-1.86-2.51-2.17-1.75-.41-2.32-1.62-2-3.43C176.92,148.42,177,148.15,177.07,147.84Zm31.21,198.82a11.67,11.67,0,0,0,1.25.3c1.74.26,2,.22,2.63-1.44a21.7,21.7,0,0,0,1.35-4.63,110.22,110.22,0,0,0,1-20.7c-.08-1.95-.27-3.9-.41-5.85L211,313A161.61,161.61,0,0,0,208.28,346.66ZM168.7,157.51c-3.74,3.94-2.89,7.92,2.06,9.59a33.53,33.53,0,0,0,6.91,1.35,6.76,6.76,0,0,0,5-1.39c1.21-1,1.33-1.78.31-2.91a8.8,8.8,0,0,0-6.36-2.94,10.12,10.12,0,0,1-6.9-2.68ZM269.43,317.63l-8.31,1.4c1.79,4.89,5.12,8.36,8.95,11.46C269.85,326.18,269.64,322,269.43,317.63ZM172.84,168.89c-.14.41-.26.72-.35,1-.53,1.87-.11,2.8,1.63,3.63a7.8,7.8,0,0,0,4,.68,16,16,0,0,0,7.4-2.68,8.22,8.22,0,0,0,1.26-1.24c-1.24-2.25-2.95-2.12-5.07-1.51a13.27,13.27,0,0,1-5.63.52C175.05,169.17,174,169,172.84,168.89ZM311.3,116.23a2.21,2.21,0,0,0,2.1-1.93,1.5,1.5,0,0,0-1.42-1.63,2.15,2.15,0,0,0-2.09,1.92A1.48,1.48,0,0,0,311.3,116.23Z" transform="translate(0 -0.85)"/><path d="M55.91,247.62c-.16,2.9-.33,5.74-.5,8.81l-6.79-5c-2.89,1.47-5.62,2.84-8.32,4.27A20,20,0,0,0,38,257.27a30.38,30.38,0,0,1-9,4.28,28.32,28.32,0,0,1-12.83.65c-1.91-.26-3.73-1.18-5.64-1.58a12.94,12.94,0,0,1-6.89-4.37A14.22,14.22,0,0,1,1,251.44a18.34,18.34,0,0,1,.08-12.36c1-3,2-5.89,4-8.35a23.76,23.76,0,0,1,5.74-5.23,78.15,78.15,0,0,1,20.8-9.23c3.23-.83,6.56-1.31,9.84-2a10.51,10.51,0,0,0,1.68-.39,85.46,85.46,0,0,1,14.95-3.6,29.21,29.21,0,0,1,12.21.31A42.9,42.9,0,0,1,78,213.87a14.86,14.86,0,0,1,5.09,3.52,6.65,6.65,0,0,1,1.44,2.3,19,19,0,0,1-1.21,14A7.49,7.49,0,0,1,81,236.21c-2.6,1.92-5.24,3.78-8,5.49a32.91,32.91,0,0,1-4.71,2.16c-2.18.9-4.35,1.83-6.58,2.57a41.19,41.19,0,0,1-4.71,1.06A11.33,11.33,0,0,1,55.91,247.62Zm-40.08-4.71.37.59,2.51-1c.4.7.78,1.41,1.21,2.08,1.29,2,2.59,4.08,3.93,6.09A2.36,2.36,0,0,0,25.72,252c-1.6-3.76-4.38-6.85-6-10.59.77-1.17,1.59-2.28,2.26-3.48a7.81,7.81,0,0,0,1-5.32,2.46,2.46,0,0,0-2.22-2.29,8.81,8.81,0,0,0-3.4.13,18.3,18.3,0,0,0-8.06,4.83A18.85,18.85,0,0,0,8,236.88c2-.89,3.36-2.43,5.2-3.25l4.9,7.58Zm53.37-20.7c.07.75.08,1.17.15,1.58.21,1.19.45,2.37.65,3.56a2.58,2.58,0,0,1-1.34,2.74c-3,2-7.53.44-7.93-3.44a12.56,12.56,0,0,0-.39-1.55l-.41,0a9.17,9.17,0,0,0-.25,1.45,6,6,0,0,0,8,5.5c2.77-1,3.45-1.87,3.49-4.58,0-.07.14-.14.29-.27,1,.75,1.86,1.83,3.39,1.87-1.66-2.2-3.24-4.29-4.83-6.38A5.13,5.13,0,0,0,69.2,222.21Zm-13.5,5.56-.47.2c.11.55.24,1.1.32,1.66a26.29,26.29,0,0,1,.35,3.06,3.35,3.35,0,0,1-2,3.37,4.08,4.08,0,0,1-4.26-.41,6.33,6.33,0,0,1-2.32-3.35c-.18-.56-.17-1.24-.93-1.69a4.29,4.29,0,0,0-.24.89A6.83,6.83,0,0,0,51,237.78c3.07.62,6-1,5.9-4.29,0-.26.05-.52.08-.91.92.41,1.48,1.54,2.81.93C58.39,231.54,57,229.66,55.7,227.77ZM30.07,239c-1.43-1.38-2.05-3.45-3.93-4.44.23,2,1.58,3.48,2.38,5.16-.59,1-2.18.89-2.52,2.49l3.53-1.1c.65.94,1.25,1.92,2,2.81s.91,2.24,2.55,2.63c-.46-2.47-2.16-4.09-3.1-6.19,1.48-1.07,3.53-1.45,4.65-3.35C33.32,236.9,31.83,238.25,30.07,239Zm12.3,3.23a8.46,8.46,0,0,0-.31-1.25c-.35-.85-.78-1.67-1.15-2.51a6.8,6.8,0,0,1,1.59-7.3c.58-.52,1.13-1.07,1.69-1.6-3.7-.27-4.27,2.54-5.1,5.09-1-.74-1.22-2.14-2.79-2.47a11.14,11.14,0,0,0,.46,1.56C37.76,235.89,41.47,241.87,42.37,242.22Z" transform="translate(0 -0.85)"/><path d="M194.66,48.43c3.39-.5,6.83-.29,10.43-.59.47-1,1-2,1.48-3.15,1.79-4.5,3.54-9,5.31-13.52a2.47,2.47,0,0,1,.8-1.06,46.63,46.63,0,0,1,0,7.19c-.34,3.09-.55,6.2-.83,9.3a1.53,1.53,0,0,0,1,1.48c2.51,1.41,5,2.79,7.56,4.17.66.36,1.36.63,2,1a7.21,7.21,0,0,1,1.14,1.29c-3.7,1.15-7.2.19-10.68.79-.58,1.34-1.26,2.68-1.76,4.08-1.24,3.48-2.38,7-3.59,10.46q-.83,2.37-1.76,4.7c-1.22,3-2.47,6.09-3.71,9.13-.23.56-.52,1.1-1,2a5.32,5.32,0,0,1-.43-1.27,12.4,12.4,0,0,1,.1-1.72c.26-2.47.68-4.92.79-7.39.3-6.8,1-13.58.68-20.41a3.78,3.78,0,0,0-2.18-3.6c-1.34-.66-2.74-1.2-4.12-1.79L194.57,49Zm26.67,5.84.09-.49c-.45-.22-.91-.42-1.34-.67-2.58-1.41-5.16-2.82-7.72-4.26A2.3,2.3,0,0,1,211,46.46c.33-3.16.62-6.32.9-9.48.11-1.32.16-2.64.23-4a2.71,2.71,0,0,0-.75,1.26c-1.61,4.26-3.25,8.51-4.84,12.78a2.54,2.54,0,0,1-2.85,1.9c-1.74-.09-3.49.09-5.24.15a9.11,9.11,0,0,0,2.05,1.38,4.47,4.47,0,0,1,2.65,4.64c-.07.69,0,1.39,0,2.08-.35,8-.71,15.92-1.07,24,1.44-3.61,3-7.07,4.2-10.68,1.5-4.62,3.33-9.1,5.22-13.56,1.05-2.46,1.07-2.46,3.79-2.66.46,0,.93,0,1.39,0Z" transform="translate(0 -0.85)"/><path d="M216.24,74.48c1.86-3.48,2.47-7.41,4.08-10.93l.46.08c0,.58,0,1.17,0,1.74-.15,2.07-.28,4.15-.54,6.2a1.92,1.92,0,0,0,.88,2.08c1.11.7,2.24,1.4,3.42,2s2.35,1,3.51,1.48c.5.22,1,.53,1.39.77-.14.93-.74.86-1.23.91-1.43.15-2.87.35-4.3.38a4,4,0,0,0-3.74,2.34c-1.08,2.16-2.13,4.35-3.14,6.54-1.09,2.36-2.13,4.74-3.21,7.1a10.78,10.78,0,0,1-.81,1.2,9.67,9.67,0,0,1-.18-1.59c.26-4.49.48-9,.85-13.47.15-1.82-.31-3.18-2-4-.87-.45-1.76-.85-2.63-1.29a7.9,7.9,0,0,1-.83-.55C209.55,74.65,212.29,74.34,216.24,74.48Zm-2.56,18.61.23,0c.32-.79.66-1.57,1-2.37a55.11,55.11,0,0,1,4.46-9.53c1-1.65,2.28-2.84,4.4-2.85a21.62,21.62,0,0,0,3.07-.44A22.25,22.25,0,0,0,224,76.38,36.58,36.58,0,0,1,220.45,74a2.36,2.36,0,0,1-.85-2.31,29.59,29.59,0,0,0,0-3A49.3,49.3,0,0,0,217.51,74a1.87,1.87,0,0,1-2.2,1.44,10.34,10.34,0,0,0-3.83.39,7.31,7.31,0,0,0,.7.55c2.1,1.13,2.72,2.88,2.46,5.2C214.22,85.39,214,89.25,213.68,93.09Z" transform="translate(0 -0.85)"/><path class="cls-3" d="M177.39,295.19c.16-1.05.23-1.66.36-2.26.18-.84.44-1.67.61-2.52a4.76,4.76,0,0,0-1.43-4.73c-1-.94-1.92-2-3-3.09l1.68-.46a31.14,31.14,0,0,0,11.08-5.54c3.28-2.56,4.86-6.06,5.48-10.08.09-.55.06-.56-.43-1.52a3.68,3.68,0,0,0-.42.9A14.93,14.93,0,0,1,184,277.42a29.66,29.66,0,0,1-14.32,4.68,140,140,0,0,0-23.92,3.71c-8.44,1.89-16.89,3.79-25.37,5.51-3.72.75-7.53,1.08-11.31,1.59a43,43,0,0,0-18.49,6.88c-2.1,1.42-4.3,2.7-6.46,4a8.43,8.43,0,0,1-1.08.55c-1.41.58-1.86.28-2-1.3a5.59,5.59,0,0,1,2.15-4.86,10.82,10.82,0,0,0,1.64-1.52,1.17,1.17,0,0,0-.36-1.91,6.75,6.75,0,0,0-1.75-.73c-2.28-.63-4.57-1.22-6.86-1.8a48.82,48.82,0,0,1-13-5.21,21.77,21.77,0,0,1-3.36-2.43c-1.23-1.09-1.2-2,.13-3a14.85,14.85,0,0,1,3.59-2c3.46-1.28,7-2.4,10.48-3.58a4.84,4.84,0,0,1,.83-.22,14.94,14.94,0,0,0,9-5.44c5.59-6.46,11.28-12.84,16.74-19.41a383.34,383.34,0,0,1,28.34-30.61c4.73-4.57,9.27-9.34,13.83-14.09a49.57,49.57,0,0,0,3.82-4.7,8,8,0,0,0,1.58-4.49,16.61,16.61,0,0,1,.92-4.21c.69-2.07,1.49-4.12,2.35-6.13a61.09,61.09,0,0,0,4.94-16c.07-.45.23-.88.36-1.39.77.2.74.87.88,1.36,1,3.32,1.92,6.65,2.82,10a62.87,62.87,0,0,0,6.24,15.57c.69-.13,1.47-.25,2.23-.43a10.48,10.48,0,0,1,7.58.73,8.08,8.08,0,0,0,.8.35c1.91.73,2.3.46,3.12-1.36a108.59,108.59,0,0,1,8.39-15.71,9.66,9.66,0,0,1,2-2.17,2.44,2.44,0,0,1,1.82-.6c.36.07.63,1,.74,1.58a12.84,12.84,0,0,1,.1,2.24c.07,4.16,0,8.32.24,12.47a85.32,85.32,0,0,0,12.22,40,40.16,40.16,0,0,0,3.95,5.24,5.83,5.83,0,0,0,5.58,2.06,33.49,33.49,0,0,1,5-.2,27,27,0,0,1,3,.36A10.7,10.7,0,0,1,223,242a109.44,109.44,0,0,1-11,24.79,101.77,101.77,0,0,1-10.32,14.74,35.72,35.72,0,0,1-18.07,11.91C181.67,294,179.74,294.52,177.39,295.19Zm-24.24-55.43c-.22,3.35,1.12,7,3.29,10.35a13.77,13.77,0,0,0,12,6.78,22.64,22.64,0,0,0,16.7-6.76,18.6,18.6,0,0,0,5.52-11.29,31.61,31.61,0,0,0-.55-11.87c-.68-2.73-1.58-5.41-2.53-8.07a5.29,5.29,0,0,0-2.91-3.28c-2.88-1.21-5.77-2.39-9-2a21.87,21.87,0,0,1-2.43,0,14.49,14.49,0,0,0-11.45,5.18c-1.32,1.52-2.53,3.15-3.7,4.79C154.77,228.19,153.25,233.38,153.15,239.76ZM115.65,244a17.75,17.75,0,0,0,1.25,6.76,5.92,5.92,0,0,0,6.67,3.77,11,11,0,0,0,3.1-1,15.5,15.5,0,0,0,8.16-9.62c1-3.18,1.89-6.41,2.66-9.66a6.57,6.57,0,0,0,0-3.73,28.18,28.18,0,0,0-3.36-5.79,3.42,3.42,0,0,0-4.53-.94,11.74,11.74,0,0,0-2.64,1.63,45.15,45.15,0,0,0-8.49,9.29A15.87,15.87,0,0,0,115.65,244Z" transform="translate(0 -0.85)"/><path class="cls-3" d="M209.14,291.85c0,.29,0,.65.11.87,2.68,4.12,3.07,8.9,3.86,13.55.25,1.48.42,3,.61,4.46.09.72.13,1.45.19,2.24-6-1.54-20.33-13.35-24.74-20.4.27-.17.53-.38.82-.53a38.29,38.29,0,0,0,12.25-9.74A113.07,113.07,0,0,0,218,257.5a99.05,99.05,0,0,0,5.57-14,5.6,5.6,0,0,1,.35-.73,19.14,19.14,0,0,0,9.28,2.33c7.55,13.78,13,17.94,28,22.11-.31.51-.6,1-.92,1.46-1.66,2.5-3.34,5-5,7.49a29.93,29.93,0,0,0-4.57,12.95,124.42,124.42,0,0,0-1.18,16.92,47.57,47.57,0,0,0,1.34,11.15c.08.32.11.66.18,1.16-4.09.87-8,.26-12.14-.3a90.23,90.23,0,0,1,1.38-11.75c.59-3.76,1.4-7.49,2-11.36-1,0-1,.57-1,1-.91,5.35-1.85,10.69-2.69,16.05-1,6.08-.76,12.21-.57,18.32s.45,12,.69,18a16.57,16.57,0,0,1-1.11,6.95,8.29,8.29,0,0,1-6.15,5.29c-3.59.85-7.21,1.61-10.77,2.58-7,1.88-13.89,3.91-20.84,5.82a62,62,0,0,1-6.6,1.42,9.63,9.63,0,0,1-3.59-.08c-1.72-.4-1.9-1.25-.77-2.59a8.57,8.57,0,0,1,3.94-2.73c3.14-1,6.3-1.87,9.47-2.71,1.56-.41,3.17-.63,4.75-1a13.37,13.37,0,0,0,1.48-.52c-.67-1-1.41-.62-2-.54-2.63.34-5.26.75-7.89,1.11-4.11.57-8.22,1.19-12.35,1.66a28.69,28.69,0,0,1-9.45-.83,5.68,5.68,0,0,1-1-.34,5.05,5.05,0,0,1-.62-.41,3.88,3.88,0,0,1,1.63-2.35,47.85,47.85,0,0,1,9.92-7.21c4.81-2.45,9.78-4.54,15.28-4.61a60.26,60.26,0,0,1,7.56.65c2.14.26,2.57.08,3.52-1.88a22.84,22.84,0,0,0,1.84-7.88,116,116,0,0,0,.46-20.75,151.83,151.83,0,0,0-2.54-18.52,18,18,0,0,0-2.59-6.38,6.21,6.21,0,0,0-.75-.79Z" transform="translate(0 -0.85)"/><path class="cls-3" d="M362.78,124c-3,6.65-11,10.07-17.61,7.65a5.28,5.28,0,0,1-3.52-4.15c-.48-2.2.07-4.37.14-6.55,0-.49.33-1-.55-1.46a4,4,0,0,0-.46,1.14,4.2,4.2,0,0,1-1.81,3.21,17.16,17.16,0,0,1-8.51,3.6c-2.87.34-4.45-.6-5.73-3.15a7.26,7.26,0,0,1-.19-6.82,4.71,4.71,0,0,0,.51-1.46,1.72,1.72,0,0,0-.31-1.22c-.12-.15-.73,0-1.07.16s-.66.46-1,.65c-1,.54-1.57.39-2.13-.64a7,7,0,0,1-.13-6c.58-1.56,1.28-3.09,1.76-4.69.94-3.09,1.84-6.19,2.62-9.32,1.18-4.74,0-8.86-3.8-12-1.94-1.61-4.14-2.9-6.37-4.44.46-2.18.9-4.66,1.52-7.1a13.62,13.62,0,0,1,5-7.7,30.55,30.55,0,0,1,5.42-3.35,53.16,53.16,0,0,1,21.38-5.19,24.06,24.06,0,0,1,5.49.46c3.15.65,4.57,2.45,4.9,5.66a14.51,14.51,0,0,1-1.23,7.09c-.47,1.11-1,2.22-1.43,3.34a5.74,5.74,0,0,0-.38,1.15c-.29,1.33.15,1.78,1.43,1.33a13.36,13.36,0,0,1,5.82-.44c2.86.26,4.37,1.5,4.83,4.33,1.21,7.44-.42,17.92-10,22.75-.87.44-2,.74-2.34,1.82.45.68,1,.43,1.44.25,2.25-.87,4-.15,5.55,1.58a5.21,5.21,0,0,1,1,6.09,13.18,13.18,0,0,1-1.77,2.75c-2.1,2.46-4.29,4.84-6.44,7.25a14.58,14.58,0,0,0-1.46,1.7c-.94,1.45-.56,2.64,1,3.37a6.07,6.07,0,0,0,5,.06C360.48,125.2,361.53,124.59,362.78,124ZM344.11,75.32a8.31,8.31,0,0,1,.53-.93,9,9,0,0,0,1.74-4.46,3.63,3.63,0,0,0-4.59-4.08,9.39,9.39,0,0,0-2.58.94,18.6,18.6,0,0,0-7.17,7.1,9,9,0,0,0-.49,1.25,27.09,27.09,0,0,1,6.31-6.2,13.81,13.81,0,0,1,3.54-1.77c2.62-.81,4.24.73,3.67,3.42a8.49,8.49,0,0,1-3.2,5c-.48.38-1.16.51-1.67.86a1,1,0,0,0-.26.86c0,.13.46.24.71.29a.86.86,0,0,0,.49-.16c1.9-1,3.94-.81,5.94-.62a8.48,8.48,0,0,1,4.34,1.57,3.12,3.12,0,0,1,.89,4.43,11,11,0,0,1-.73,1c-.74,1-.6,1.29.56,1.65A11.11,11.11,0,0,1,355,86.57c1.58,1,1.57,2.17.11,3.31a12.16,12.16,0,0,1-1.61,1c-1,.54-2,1-3,1.57a10.28,10.28,0,0,0,3.57-.56,7.83,7.83,0,0,0,2.38-1.36,2.73,2.73,0,0,0,.25-4.26,10.83,10.83,0,0,0-2.07-1.52,10.18,10.18,0,0,0-1.44-.65c.17-.34.3-.59.42-.85,1.23-2.64.58-4.93-2-6.29a16.61,16.61,0,0,0-3.91-1.29A28.9,28.9,0,0,0,344.11,75.32Z" transform="translate(0 -0.85)"/><path class="cls-3" d="M208.7,120.66a11.69,11.69,0,0,1,1.1-1.88,45.11,45.11,0,0,1,3.79-4,172.59,172.59,0,0,1,17-13.42,80.87,80.87,0,0,1,19.58-9.41,9.14,9.14,0,0,1,7.65.43c13.42,6.56,26.93,12.93,40.41,19.36.46.22.92.47,1.59.81-1.45,3.52-3,7-3.37,10.82s-.48,7.58-.72,11.61c-2.39.65-4.92,1.4-7.49,2A122.73,122.73,0,0,1,270.14,140a23.4,23.4,0,0,1-9.39-1,68.56,68.56,0,0,0-6.75-1.45c-9.22-2-18-5.35-26.65-9.06-5.14-2.21-10.27-4.43-15.42-6.62C210.94,121.46,209.92,121.12,208.7,120.66Zm75,2.25a3.06,3.06,0,0,0-2.49-1.47c-5.36-1.17-10.72-2.3-16.08-3.45a3.56,3.56,0,0,1-.8-.3,24.43,24.43,0,0,0-.24-3.08c-.36-1.61-1.66-2-2.79-.76a13.54,13.54,0,0,0-1.51,2.74,6.74,6.74,0,0,1-.93-.15l-7.5-2.11A60.61,60.61,0,0,0,237,111.61a38.14,38.14,0,0,0-5,.31,1.1,1.1,0,0,0-.8.72c0,.27.34.69.64.87a5,5,0,0,0,1.46.52c1.35.31,2.71.57,4.06.87,1,.21,1.9.45,2.86.68a30.43,30.43,0,0,1-4.35,1.51c-1.36.42-2.91.46-4.25,1.79a7.7,7.7,0,0,0,1.36.45c4.25.36,8.51.68,12.77,1,7.19.63,14.37,1.33,21.56,1.91,4.72.38,9.44.63,14.17.89A13.48,13.48,0,0,0,283.72,122.91Zm-32-23.54-.39-.5a18.36,18.36,0,0,0-4.89,3,3.29,3.29,0,0,0-.22,4.8,5.94,5.94,0,0,0,3,1.89c3.27,1,6.63.66,10,.56.2,0,.4-.37.6-.57a3.77,3.77,0,0,0-1.79-.32c-1.5,0-3,.06-4.5,0a11.17,11.17,0,0,1-5.5-1.29c-2.24-1.36-2.33-3.46-.2-5,.93-.66,2-1.16,3-1.78A6.93,6.93,0,0,0,251.73,99.37Zm35.93,17c-.55-.71-1.21-.4-1.79-.38-1.67,0-3.35.25-5,.15a9,9,0,0,1-6.44-3.32c1-.93,1.87-1.82,2.82-2.64,2.28-2,2.29-2,2.43-2.84-.16,0-.39-.1-.47,0-1.7,1.47-3.44,2.9-5,4.46-.87.85-.77,1.55.14,2.4a10.62,10.62,0,0,0,4.94,2.72c2.65.62,5.28.23,7.91-.1C287.32,116.83,287.47,116.59,287.66,116.42Z" transform="translate(0 -0.85)"/><path class="cls-3" d="M269.81,316.13a23,23,0,0,1-9.09,1.69c-.17-.39-.37-.74-.5-1.11-4.45-12.67-3.8-25.15,1.42-37.46a29.53,29.53,0,0,1,7.68-10.55A2.84,2.84,0,0,1,271,268a14.35,14.35,0,0,0,10.16-4.89,55.42,55.42,0,0,0,8.71-12.65,4.23,4.23,0,0,1,1.87-1.87c2.23-1.19,4.42-2.49,6.54-3.88a2.9,2.9,0,0,1,2.9-.34,10.32,10.32,0,0,1,4,2.73,26,26,0,0,1,6.76,13.78c2.91,18.44-3.89,35.54-20.52,46.12-3.05,1.94-6.42,3.39-9.64,5.05a3.93,3.93,0,0,1-.81.14,19.68,19.68,0,0,1,1.77-2.93,37.82,37.82,0,0,1,4.17-4.13,46.46,46.46,0,0,1,8.87-5.68,14.46,14.46,0,0,0,3-2c1.51-1.32,1.44-2.73.06-4.18a4.64,4.64,0,0,0-3.29-1.5,16.13,16.13,0,0,0-11,3.29,41.27,41.27,0,0,0-9.17,8.87A30.48,30.48,0,0,0,269.81,316.13Z" transform="translate(0 -0.85)"/><path class="cls-3" d="M230.37,181.64l67.66-.52c.06,1.08.18,2,.14,3-.43,11.12-1.19,22.23-2.44,33.3-.84,7.39-1.68,14.78-3.21,22.07a48,48,0,0,1-12.1,23A13.27,13.27,0,0,1,270,267a40.85,40.85,0,0,1-12.09-1.86c-2.25-.73-4.45-1.61-6.63-2.51a26,26,0,0,1-10.48-7.75A59,59,0,0,1,228.59,230a37.87,37.87,0,0,1-.43-10.52c.71-10.59,1.49-21.18,2.19-31.77C230.47,185.8,230.37,183.9,230.37,181.64Zm7.44,7.82c-.17,2.16-.33,4.16-.47,6.16-.12,1.61-.27,3.22-.3,4.84a127.57,127.57,0,0,0,.74,18.33,75.51,75.51,0,0,0,4.42,17.93c3.11,8.18,9.27,13,17.2,15.93a28.7,28.7,0,0,0,5.9,1.34,12,12,0,0,0,10.14-3.44,37.18,37.18,0,0,0,8.69-12.39,54.82,54.82,0,0,0,4.23-18.81c.56-7.86,0-15.7,0-23.55,0-1.67-.12-3.34-.2-5-.05-1.09-.35-1.39-1.47-1.49-.23,0-.46,0-.69,0q-23.47,0-46.94,0A9.51,9.51,0,0,0,237.81,189.46Z" transform="translate(0 -0.85)"/><path class="cls-3" d="M169.36,2.82c.4.53.69.87.95,1.25,2.82,4.08,5.62,8.18,8.45,12.26a4.53,4.53,0,0,1,.83,2.39c.57,9.1,1.18,18.2,1.78,27.29q.85,12.87,1.72,25.74,1,15.72,2.09,31.44.85,12.87,1.72,25.74c.1,1.49.22,3,.31,4.49,0,.56,0,1.12,0,1.82l-6.95.68c-.11-.66-.26-1.26-.31-1.86-.63-8.4-1.24-16.81-1.88-25.21-.86-11.16-1.76-22.32-2.62-33.48-.53-6.84-1-13.69-1.53-20.54-.74-9.72-1.52-19.44-2.27-29.16-.38-4.89-.73-9.78-1.11-14.67a15.89,15.89,0,0,0-.36-1.77c-1,.43-.72,1.08-.69,1.6.26,3.69.54,7.37.82,11s.58,7.13.86,10.7q.85,11,1.69,21.92c.39,5.06.74,10.13,1.13,15.19q1,12.77,2,25.54c.4,5.18.76,10.36,1.15,15.54q.92,12.17,1.84,24.34c0,.22,0,.44,0,.9l-7.65.76c-.14-1.13-.3-2.14-.38-3.15-.39-5.53-.75-11.05-1.15-16.58q-1-13.47-2-26.93c-.4-5.53-.76-11-1.15-16.58-.65-8.92-1.32-17.84-2-26.76-.41-5.64-.78-11.28-1.18-16.92-.21-3.05-.46-6.1-.64-9.15a5.56,5.56,0,0,1,.28-2.19c1.88-5,3.82-9.91,5.74-14.86C169,3.44,169.14,3.25,169.36,2.82Z" transform="translate(0 -0.85)"/><path class="cls-3" d="M263.56,143.45c1,.19,1.93.37,2.83.51,4.51.68,9,.14,13.45-.49,2.11-.29,4.21-.68,6.31-1.07a34.29,34.29,0,0,0,10.07-3.15,13.08,13.08,0,0,0,2.48,1.42,14.61,14.61,0,0,0,2.9.3c-.16.69-.28,1.35-.48,2a89.15,89.15,0,0,0-3.91,17.89c-.53,5.11-.86,10.24-1.27,15.36-.1,1.26-.19,2.51-.3,3.93h-15.5A41.36,41.36,0,0,0,283,168.07a1.2,1.2,0,0,0-.33-.79c-1.15,4.33-1.81,8.76-3.82,13l-40.95.32c-1.49-4.91-1.24-9.63,1.45-14a31.19,31.19,0,0,1,4.44-5.72,64.28,64.28,0,0,1,16.07-12.2C261.91,147.59,263.74,146.29,263.56,143.45Zm-6.25,25.91c.95-.74,1.87-1.34,2.66-2.07a5.21,5.21,0,0,0,1.82-3.26c.12-1.21-.6-1.93-1.77-1.67a6.52,6.52,0,0,0-2,.92,6.33,6.33,0,0,0-2.76,4.54c-1.73,0-2.27-.6-1.8-2a10.34,10.34,0,0,1,1.34-2.6,21.77,21.77,0,0,1,5.85-5.59c.35-.23.69-.5,1.16-.86a2,2,0,0,0-2.24.26,18.44,18.44,0,0,0-6.67,6.4,8.19,8.19,0,0,0-.88,1.87c-.81,2.48.22,4,2.8,4.4a1.82,1.82,0,0,1,1.15.53,4.22,4.22,0,0,0,4.93,1.53c1.42-.41,2.81-1,4.21-1.43,1.94,2.31,3.48,2.84,6.39,2.07a12.54,12.54,0,0,0,2.72-1.08c4.47-2.46,5.49-7.35,2.44-11.66.1,1.4.3,2.77.3,4.14a7.54,7.54,0,0,1-7.8,7.52,2.43,2.43,0,0,1-2.66-1.82c1.36-1.18,2.77-2.28,4-3.52a7.9,7.9,0,0,0,1.66-2.39,1.38,1.38,0,0,0-1.61-2,5.1,5.1,0,0,0-2.16,1,9,9,0,0,0-3.29,5.15c-.1.42-.27,1-.58,1.15a11,11,0,0,1-5.07,1.59A2.17,2.17,0,0,1,257.31,169.36Z" transform="translate(0 -0.85)"/><path class="cls-3" d="M271.13,56.65c1.59,1.27,36.39,49.67,38.41,53.37l-2.86,4.64c-1.26-.59-2.74-1.27-4.22-2q-9-4.29-17.94-8.58-14.06-6.7-28.12-13.39c-3.53-1.67-7.1-3.26-10.68-4.84-.61-.27-1-.61-1-1.24a13.39,13.39,0,0,1,.26-3.24,10.78,10.78,0,0,1,1.4-3,70.74,70.74,0,0,1,9.56-12,33.08,33.08,0,0,1,8.81-6.33C266.86,59,268.91,57.85,271.13,56.65Zm1.2,33.18.38.4,4.67-4.17a51.23,51.23,0,0,0,5.47,4.16l.29-.35-4.92-4.74,5.13-5-.3-.31c-1.82,1.55-3.65,3.09-5.56,4.7l-6.83-6.12,6.58-6.87-.29-.29a84.51,84.51,0,0,0-7.06,6.5l-5.81-4.86,6.86-6.71a2.79,2.79,0,0,0-1.65.64c-1.56,1.37-3.07,2.79-4.59,4.21-.46.42-.89.87-1.32,1.3l-2.45-1.45-.12.22,2,1.83c-1.4,1.69-2.73,3.21-4,4.81A23.18,23.18,0,0,0,257,80.69c-.11.2,0,.56.12,1.25a54.52,54.52,0,0,1,6.51-8.39l5.49,4.94-3.1,3.36c-1.9,2.09-2.06,2.37-2.05,3.69l5.93-6.33,6.72,6.17Z" transform="translate(0 -0.85)"/><path class="cls-3" d="M167.89,350.06a5.23,5.23,0,0,0-1.2-.33c-1.15-.07-2.31-.08-3.46-.09-6.76,0-13.51.12-20.25.74-1.32.12-2.65.14-4,.14a14.71,14.71,0,0,1-2.07-.3,23,23,0,0,1,1.84-1.77,22.15,22.15,0,0,1,6.89-3.56c4.8-1.45,9.64-2.79,14.49-4.06a94.66,94.66,0,0,1,10.46-2.38c4-.58,8-.71,12.07-1,2.07-.14,4.16-.11,6.23-.23,1.42-.09,1.87-.46,2-1.67a69.66,69.66,0,0,0,.62-15.2c-.45-4.66-1-9.3-1.42-14-.33-3.27-.6-6.55-.88-9.83-.05-.55,0-1.12,0-2,6.43,6.72,12.57,13.37,20.87,17.81-2.25,11.21-2.83,22.59-2.84,34.07a9.1,9.1,0,0,1-1.2,0,25.15,25.15,0,0,0-10.46.81,41,41,0,0,0-14.13,6.76,19.28,19.28,0,0,1-8.12,3.67c-3.73.74-7.51,1.27-11.29,1.64-3.39.33-6.81.32-10.21.45-.35,0-.69,0-1,0-1.07,0-2.23-.16-2.71-1.18s.56-1.77,1.15-2.51a10.44,10.44,0,0,1,5.21-3.25,47.66,47.66,0,0,1,10.4-1.71,5.52,5.52,0,0,0,2.94-.62Z" transform="translate(0 -0.85)"/><path class="cls-3" d="M236.49,170.16a50,50,0,0,0-.44,5.17,52.08,52.08,0,0,0,.61,5.34h-2c-1.33,0-2.66,0-4,.09-1.09.07-1.29.4-1.29,1.4,0,2,0,3.92-.08,5.87-.16,3.05-.45,6.1-.62,9.15a2.34,2.34,0,0,1-1.17,1.94,15,15,0,0,1-8.79,2.7,56.07,56.07,0,0,1-12.4-1,20.67,20.67,0,0,1-11-6.09,4,4,0,0,1-1.19-2.93c0-3.87,0-7.74-.08-11.6a11.42,11.42,0,0,0-.34-2.74,1.72,1.72,0,0,0-2.79-1.19,11.56,11.56,0,0,0-2.14,1.71,18.71,18.71,0,0,0-1.28,1.38c-.91-2.18-2.06-4-2.16-6.35,1.2-1,2.82-1.64,2.28-3.65.34-.2.65-.36.93-.55,1.18-.76,1.52-1.49,1-2.77-1.36-3.32-1.53-6.85-2-10.33-.12-.85-.18-1.7-.28-2.62,2-.54,4.1.18,6.19-.58-.58-.81-1.2-.59-1.73-.61-3.46-.1-6.92-.16-10.38-.28a7.84,7.84,0,0,1-2-.33,1.8,1.8,0,0,1-1.34-2.67,7.75,7.75,0,0,1,4-4.56,8.47,8.47,0,0,1,2.29-.77A23.85,23.85,0,0,1,197,144.32a13.53,13.53,0,0,1,2.43,1.3,1.82,1.82,0,0,1,.79,1.94,28.85,28.85,0,0,0-.25,4.82,67.63,67.63,0,0,0,3.15,17.67,27.07,27.07,0,0,0,2,4.6,9.35,9.35,0,0,0,8.35,5,23.75,23.75,0,0,0,7.86-1A39.44,39.44,0,0,0,231.51,174C233.29,172.88,234.87,171.43,236.49,170.16Z" transform="translate(0 -0.85)"/><path class="cls-3" d="M316.07,112.76c-1.12-2.27-2.33-4.28-5.4-3C303,98.89,295.3,88.09,287.56,77.19A8.85,8.85,0,0,1,291.35,76a38.54,38.54,0,0,1,13.91.83,46.3,46.3,0,0,1,10,3.34,21.27,21.27,0,0,1,5.42,3.68A10.07,10.07,0,0,1,324,93.73a65.4,65.4,0,0,1-5,15.61A8.8,8.8,0,0,1,316.07,112.76Z" transform="translate(0 -0.85)"/><path class="cls-3" d="M313.49,272.12c.07-5.37.71-10.38,1.25-15.41a89.19,89.19,0,0,1,3.88-17.36A17.7,17.7,0,0,1,320,236a43.64,43.64,0,0,1,13.22-14.88,29.26,29.26,0,0,1,8.16-4.11,13.12,13.12,0,0,1,3.22-.57c1.47-.06,2,.63,1.75,2.06a13.51,13.51,0,0,1-1,3.13c-1.62,3.45-3.16,6.94-5,10.26-4.35,7.75-8.84,15.41-13.31,23.09a16.21,16.21,0,0,1-1.95,2.64,124.72,124.72,0,0,0-10.93,13.63C314.06,271.49,313.86,271.69,313.49,272.12Z" transform="translate(0 -0.85)"/><path class="cls-3" d="M314.27,273c.46-.71.88-1.45,1.38-2.13A146.43,146.43,0,0,1,326,258.51a134.37,134.37,0,0,1,12.32-11.9,90.26,90.26,0,0,1,21.13-13.74,45.35,45.35,0,0,1,5.86-2.08,9.65,9.65,0,0,1,3.08-.26c1.22.07,1.68.72,1.31,1.89a10.57,10.57,0,0,1-1.51,3.09,86.91,86.91,0,0,1-5.6,6.81,127,127,0,0,1-16.7,14.54,64.77,64.77,0,0,1-10.94,7c-1,.47-2,.9-3,1.35-4.74,2.13-9.48,4.24-14.21,6.38-.74.33-1.39.83-2.1,1.21a11.24,11.24,0,0,1-1.19.45Z" transform="translate(0 -0.85)"/><path class="cls-3" d="M336.05,141a11.48,11.48,0,0,1,0,2.38,10.48,10.48,0,0,1-1,2.58c-1.28,2.39-2.58,4.77-4,7.1a103.9,103.9,0,0,0-9.84,22.26,212.32,212.32,0,0,1-7.49,21,109.8,109.8,0,0,0-5.31,16.44,7.88,7.88,0,0,1-.24.83c0,.08-.16.13-.37.3-.13-1.54-.28-3-.35-4.45a125.8,125.8,0,0,1,4.76-41.57,40.72,40.72,0,0,1,9.62-17.2,45.57,45.57,0,0,1,12.4-9A16.05,16.05,0,0,1,336.05,141Z" transform="translate(0 -0.85)"/><path class="cls-3" d="M309,215.22c.4-1.67.74-3.35,1.2-5a113.44,113.44,0,0,1,6.32-17.56,66,66,0,0,1,5.82-10,124.73,124.73,0,0,1,17.43-20.33,31.49,31.49,0,0,1,4.07-3.2,6.24,6.24,0,0,1,2.57-.91,1.73,1.73,0,0,1,2.15,2,9.29,9.29,0,0,1-.54,2.87c-1.21,3.05-2.39,6.12-3.83,9.07A71.47,71.47,0,0,1,333,188.3c-2.49,2.8-4.83,5.75-7.45,8.41-5.64,5.73-10.54,12.08-15.68,18.22a2.66,2.66,0,0,0-.29.64Z" transform="translate(0 -0.85)"/><path class="cls-3" d="M262.33,267.35l5.95.76a13.32,13.32,0,0,1-.94,1.13A29.8,29.8,0,0,0,260,280.65a51.65,51.65,0,0,0-3.54,23.42,52.39,52.39,0,0,0,4.39,16.84,20.81,20.81,0,0,0,5.08,7.15c2.33,2.06,4.77,4,7.13,6a19.7,19.7,0,0,1,1.48,1.56c-1.88,2.32-28.66,20.66-31,21.29-.05,0-.12-.05-.13-.09s0-.11.06-.16a4,4,0,0,1,.32-.4c1.35-1.26,2.69-2.54,4.06-3.77l18.49-16.41a12.38,12.38,0,0,1-1.32-.84c-1.54-1.31-3.07-2.63-4.57-4a29.23,29.23,0,0,1-9.58-18.86,81,81,0,0,1,.18-18.15c.29-2.86.74-5.72,1.24-8.56a21.55,21.55,0,0,1,1.24-4.13C255.7,276.36,259.25,272,262.33,267.35Z" transform="translate(0 -0.85)"/><path class="cls-3" d="M301.42,353c-11.78,4.15-23.79,7.09-36.44,6.91,4.83-1.5,9.6-3.19,14.49-4.45s9.75-2.05,14.88-3.1a5.73,5.73,0,0,0-1-.75c-1.83-.73-3.7-1.34-5.49-2.13-2.74-1.21-5.51-2.39-8.11-3.85a16.8,16.8,0,0,1-6.61-7.11c.58-.49,1.13-1,1.71-1.43a1.3,1.3,0,0,0,.39-2,4.94,4.94,0,0,0-1.44-1.65,4.69,4.69,0,0,1-2.61-4.15c-.2-3.28-.6-6.56-.6-9.84a23.64,23.64,0,0,1,4.12-12.85,39,39,0,0,1,11-11.14A14.76,14.76,0,0,1,296,292.81a3.74,3.74,0,0,1,2.71,1.9,1.44,1.44,0,0,1-.46,2,17,17,0,0,1-2.87,1.91,55.57,55.57,0,0,0-8.78,5.52,20.83,20.83,0,0,0-6.68,8c-1.4,3-3,6-3.48,9.38a37.64,37.64,0,0,0,.31,13.09,9.64,9.64,0,0,0,3.61,5.93c1.32,1,2.66,2.05,4.07,2.94a93.36,93.36,0,0,0,13.47,7.07c1.26.53,2.43,1.24,3.65,1.86Z" transform="translate(0 -0.85)"/><path class="cls-3" d="M291.15,247.73c3.11-8.91,4.18-17.85,5.16-26.81.67-6.19,1.21-12.4,1.81-18.6a2.05,2.05,0,0,1,.47-1.16c.26.91.45,1.84.79,2.72.9,2.3,1.76,4.63,2.83,6.85a10.55,10.55,0,0,0,2.28,3,12.66,12.66,0,0,1,3.91,9c.53,8.7-2.66,15.66-9.91,20.64-2,1.36-4.08,2.6-6.13,3.89A8.53,8.53,0,0,1,291.15,247.73Z" transform="translate(0 -0.85)"/><path class="cls-3" d="M300.86,113c1.89.9,3.71,1.74,5.51,2.64a2.2,2.2,0,0,1,.83.8c1.13,2,1.12,2,2.88,2.91a2.59,2.59,0,0,1-.1.61,26.27,26.27,0,0,0-2,10.29c0,1.55,0,3.11,0,4.67a3.47,3.47,0,0,1-1.83,3.29,12.23,12.23,0,0,1-6.27,1.65,2.62,2.62,0,0,1-2.87-2.61c-.11-.91-.1-1.84-.13-2.76-.2-7,.21-13.83,3.26-20.28.13-.26.23-.53.35-.79A3.91,3.91,0,0,1,300.86,113Z" transform="translate(0 -0.85)"/><path class="cls-3" d="M177.07,147.84c-.07.31-.15.58-.2.85-.3,1.81.27,3,2,3.43,1.33.31,1.86,1.24,2.51,2.17a5.45,5.45,0,0,1,1,3.41,1.6,1.6,0,0,1-1.14,1.57c-4.06,1.49-8.8,1.56-12-2.73a26.22,26.22,0,0,1-3.78-7.34c-1.05-3.18.22-4.78,3.59-4.53A15.2,15.2,0,0,1,177.07,147.84Z" transform="translate(0 -0.85)"/><path class="cls-3" d="M168.7,157.51l1.06,1a10.12,10.12,0,0,0,6.9,2.68,8.8,8.8,0,0,1,6.36,2.94c1,1.13.9,1.95-.31,2.91a6.76,6.76,0,0,1-5,1.39,33.53,33.53,0,0,1-6.91-1.35C165.81,165.43,165,161.45,168.7,157.51Z" transform="translate(0 -0.85)"/><path class="cls-3" d="M172.84,168.89c1.14.15,2.21.28,3.28.44a13.27,13.27,0,0,0,5.63-.52c2.12-.61,3.83-.74,5.07,1.51a8.22,8.22,0,0,1-1.26,1.24,16,16,0,0,1-7.4,2.68,7.8,7.8,0,0,1-4-.68c-1.74-.83-2.16-1.76-1.63-3.63C172.58,169.61,172.7,169.3,172.84,168.89Z" transform="translate(0 -0.85)"/><path class="cls-3" d="M311.3,116.23a1.48,1.48,0,0,1-1.41-1.64,2.15,2.15,0,0,1,2.09-1.92,1.5,1.5,0,0,1,1.42,1.63A2.21,2.21,0,0,1,311.3,116.23Z" transform="translate(0 -0.85)"/><path class="cls-3" d="M15.83,242.91l2.28-1.7-4.9-7.58c-1.84.82-3.24,2.36-5.2,3.25a18.85,18.85,0,0,1,1.3-1.65,18.3,18.3,0,0,1,8.06-4.83,8.81,8.81,0,0,1,3.4-.13A2.46,2.46,0,0,1,23,232.56a7.81,7.81,0,0,1-1,5.32c-.67,1.2-1.49,2.31-2.26,3.48,1.58,3.74,4.36,6.83,6,10.59a2.36,2.36,0,0,1-1.87-1.31c-1.34-2-2.64-4-3.93-6.09-.43-.67-.81-1.38-1.21-2.08l-2.51,1Zm3.1-3.08A9.24,9.24,0,0,0,21.71,235a10,10,0,0,0,0-2.38,1.43,1.43,0,0,0-1.34-1.35c-2.37-.39-4.28.63-6.21,1.76C15.84,235.43,17.38,237.63,18.93,239.83Z" transform="translate(0 -0.85)"/><path class="cls-3" d="M69.2,222.21a5.13,5.13,0,0,1,.84.51c1.59,2.09,3.17,4.18,4.83,6.38-1.53,0-2.4-1.12-3.39-1.87-.15.13-.28.2-.29.27,0,2.71-.72,3.61-3.49,4.58a6,6,0,0,1-8-5.5,9.17,9.17,0,0,1,.25-1.45l.41,0a12.56,12.56,0,0,1,.39,1.55c.4,3.88,4.94,5.47,7.93,3.44A2.58,2.58,0,0,0,70,227.35c-.2-1.19-.44-2.37-.65-3.56C69.28,223.38,69.27,223,69.2,222.21Z" transform="translate(0 -0.85)"/><path class="cls-3" d="M55.7,227.77c1.34,1.89,2.69,3.77,4.1,5.74-1.33.61-1.89-.52-2.81-.93,0,.39-.09.65-.08.91.1,3.25-2.83,4.91-5.9,4.29a6.83,6.83,0,0,1-4.85-6.28,4.29,4.29,0,0,1,.24-.89c.76.45.75,1.13.93,1.69a6.33,6.33,0,0,0,2.32,3.35,4.08,4.08,0,0,0,4.26.41,3.35,3.35,0,0,0,2-3.37,26.29,26.29,0,0,0-.35-3.06c-.08-.56-.21-1.11-.32-1.66Z" transform="translate(0 -0.85)"/><path class="cls-3" d="M30.07,239c1.76-.74,3.25-2.09,5.52-2-1.12,1.9-3.17,2.28-4.65,3.35.94,2.1,2.64,3.72,3.1,6.19-1.64-.39-1.85-1.75-2.55-2.63s-1.31-1.87-2-2.81L26,242.2c.34-1.6,1.93-1.45,2.52-2.49-.8-1.68-2.15-3.16-2.38-5.16C28,235.54,28.64,237.61,30.07,239Z" transform="translate(0 -0.85)"/><path class="cls-3" d="M42.37,242.22c-.9-.35-4.61-6.33-5.61-8.48a11.14,11.14,0,0,1-.46-1.56c1.57.33,1.77,1.73,2.79,2.47.83-2.55,1.4-5.36,5.1-5.09-.56.53-1.11,1.08-1.69,1.6a6.8,6.8,0,0,0-1.59,7.3c.37.84.8,1.66,1.15,2.51A8.46,8.46,0,0,1,42.37,242.22Z" transform="translate(0 -0.85)"/><path class="cls-3" d="M221.33,54.27h-4.65c-.46,0-.93,0-1.39,0-2.72.2-2.74.2-3.79,2.66-1.89,4.46-3.72,8.94-5.22,13.56-1.16,3.61-2.76,7.07-4.2,10.68.36-8.1.72-16.06,1.07-24,0-.69-.05-1.39,0-2.08a4.47,4.47,0,0,0-2.65-4.64,9.11,9.11,0,0,1-2.05-1.38c1.75-.06,3.5-.24,5.24-.15a2.54,2.54,0,0,0,2.85-1.9c1.59-4.27,3.23-8.52,4.84-12.78a2.71,2.71,0,0,1,.75-1.26c-.07,1.33-.12,2.65-.23,4-.28,3.16-.57,6.32-.9,9.48a2.3,2.3,0,0,0,1.34,2.39c2.56,1.44,5.14,2.85,7.72,4.26.43.25.89.45,1.34.67Z" transform="translate(0 -0.85)"/><path class="cls-3" d="M213.68,93.09c.31-3.84.54-7.7,1-11.53.26-2.32-.36-4.07-2.46-5.2a7.31,7.31,0,0,1-.7-.55,10.34,10.34,0,0,1,3.83-.39,1.87,1.87,0,0,0,2.2-1.44,49.3,49.3,0,0,1,2.12-5.28,29.59,29.59,0,0,1,0,3,2.36,2.36,0,0,0,.85,2.31A36.58,36.58,0,0,0,224,76.38a22.25,22.25,0,0,1,2.82,1.55,21.62,21.62,0,0,1-3.07.44c-2.12,0-3.35,1.2-4.4,2.85a55.11,55.11,0,0,0-4.46,9.53c-.31.8-.65,1.58-1,2.37Z" transform="translate(0 -0.85)"/><path d="M153.15,239.76c.1-6.38,1.62-11.57,4.89-16.19,1.17-1.64,2.38-3.27,3.7-4.79a14.49,14.49,0,0,1,11.45-5.18,21.87,21.87,0,0,0,2.43,0c3.24-.35,6.13.83,9,2a5.29,5.29,0,0,1,2.91,3.28c1,2.66,1.85,5.34,2.53,8.07a31.61,31.61,0,0,1,.55,11.87,18.6,18.6,0,0,1-5.52,11.29,22.64,22.64,0,0,1-16.7,6.76,13.77,13.77,0,0,1-12-6.78C154.27,246.72,152.93,243.11,153.15,239.76Zm22.14-25.18c-1.16,0-2,0-2.89,0a12.52,12.52,0,0,0-8.75,3.62c-4.3,4.32-7.69,9.22-9,15.33s-.76,11.8,3.13,17a12.92,12.92,0,0,0,9.81,5.42,21.37,21.37,0,0,0,15.24-5,17.71,17.71,0,0,0,6.81-12.22,33.78,33.78,0,0,0-.08-9.15,39.6,39.6,0,0,0-2.77-10,5.57,5.57,0,0,0-3-3.24C181,215.14,178.17,214.09,175.29,214.58Z" transform="translate(0 -0.85)"/><path d="M115.65,244a15.87,15.87,0,0,1,2.82-9.29,45.15,45.15,0,0,1,8.49-9.29,11.74,11.74,0,0,1,2.64-1.63,3.42,3.42,0,0,1,4.53.94,28.18,28.18,0,0,1,3.36,5.79,6.57,6.57,0,0,1,0,3.73c-.77,3.25-1.64,6.48-2.66,9.66a15.5,15.5,0,0,1-8.16,9.62,11,11,0,0,1-3.1,1,5.92,5.92,0,0,1-6.67-3.77A17.75,17.75,0,0,1,115.65,244ZM136.94,232c-.21-.63-.42-1.53-.78-2.36a22.85,22.85,0,0,0-1.34-2.42c-2-3.33-3.86-3.8-6.85-1.28a71.46,71.46,0,0,0-6.93,7,20.44,20.44,0,0,0-2.94,4.45,15.72,15.72,0,0,0-.38,12.93,5,5,0,0,0,6.26,3.27,10.92,10.92,0,0,0,2.57-1,14.15,14.15,0,0,0,7.21-8.48c1.17-3.61,2-7.33,3-11C136.84,232.81,136.85,232.52,136.94,232Z" transform="translate(0 -0.85)"/><path d="M344.11,75.32a28.9,28.9,0,0,1,3.55.37A16.61,16.61,0,0,1,351.57,77c2.58,1.36,3.23,3.65,2,6.29-.12.26-.25.51-.42.85a10.18,10.18,0,0,1,1.44.65,10.83,10.83,0,0,1,2.07,1.52,2.73,2.73,0,0,1-.25,4.26A7.83,7.83,0,0,1,354,91.91a10.28,10.28,0,0,1-3.57.56c1-.52,2-1,3-1.57a12.16,12.16,0,0,0,1.61-1c1.46-1.14,1.47-2.29-.11-3.31a11.11,11.11,0,0,0-2.85-1.14c-1.16-.36-1.3-.66-.56-1.65a11,11,0,0,0,.73-1,3.12,3.12,0,0,0-.89-4.43,8.48,8.48,0,0,0-4.34-1.57c-2-.19-4-.39-5.94.62a.86.86,0,0,1-.49.16c-.25,0-.69-.16-.71-.29a1,1,0,0,1,.26-.86c.51-.35,1.19-.48,1.67-.86a8.49,8.49,0,0,0,3.2-5c.57-2.69-1.05-4.23-3.67-3.42a13.81,13.81,0,0,0-3.54,1.77,27.09,27.09,0,0,0-6.31,6.2,9,9,0,0,1,.49-1.25,18.6,18.6,0,0,1,7.17-7.1,9.39,9.39,0,0,1,2.58-.94,3.63,3.63,0,0,1,4.59,4.08,9,9,0,0,1-1.74,4.46A8.31,8.31,0,0,0,344.11,75.32Z" transform="translate(0 -0.85)"/><path d="M283.72,122.91a13.48,13.48,0,0,1-2.28.27c-4.73-.26-9.45-.51-14.17-.89-7.19-.58-14.37-1.28-21.56-1.91-4.26-.37-8.52-.69-12.77-1a7.7,7.7,0,0,1-1.36-.45c1.34-1.33,2.89-1.37,4.25-1.79a30.43,30.43,0,0,0,4.35-1.51c-1-.23-1.9-.47-2.86-.68-1.35-.3-2.71-.56-4.06-.87a5,5,0,0,1-1.46-.52c-.3-.18-.68-.6-.64-.87a1.1,1.1,0,0,1,.8-.72,38.14,38.14,0,0,1,5-.31,60.61,60.61,0,0,1,14.42,2.72l7.5,2.11a6.74,6.74,0,0,0,.93.15,13.54,13.54,0,0,1,1.51-2.74c1.13-1.23,2.43-.85,2.79.76a24.43,24.43,0,0,1,.24,3.08,3.56,3.56,0,0,0,.8.3c5.36,1.15,10.72,2.28,16.08,3.45A3.06,3.06,0,0,1,283.72,122.91ZM233.39,113l2,.47c2,.44,3.94.84,5.9,1.34.37.09.67.51,1,.78-.31.3-.56.76-.93.88-1.53.51-3.09.91-4.64,1.37a8.85,8.85,0,0,0-1,.4c14.13,1.38,28.16,2.91,42.26,3.7a7.36,7.36,0,0,0-1.8-.56q-12.12-2.44-24-5.8c-3.81-1.08-7.71-1.94-11.61-2.67A13.86,13.86,0,0,0,233.39,113Z" transform="translate(0 -0.85)"/><path d="M251.73,99.37a6.93,6.93,0,0,1-.92.81c-1,.62-2,1.12-3,1.78-2.13,1.51-2,3.61.2,5a11.17,11.17,0,0,0,5.5,1.29c1.49.06,3,0,4.5,0a3.77,3.77,0,0,1,1.79.32c-.2.2-.4.56-.6.57-3.34.1-6.7.39-10-.56a5.94,5.94,0,0,1-3-1.89,3.29,3.29,0,0,1,.22-4.8,18.36,18.36,0,0,1,4.89-3Z" transform="translate(0 -0.85)"/><path d="M287.66,116.42c-.19.17-.34.41-.51.43-2.63.33-5.26.72-7.91.1a10.62,10.62,0,0,1-4.94-2.72c-.91-.85-1-1.55-.14-2.4,1.6-1.56,3.34-3,5-4.46.08-.08.31,0,.47,0-.14.85-.15.84-2.43,2.84-.95.82-1.83,1.71-2.82,2.64a9,9,0,0,0,6.44,3.32c1.66.1,3.34-.1,5-.15C286.45,116,287.11,115.71,287.66,116.42Z" transform="translate(0 -0.85)"/><path d="M237.81,189.46a9.51,9.51,0,0,1,1.21-.15q23.47,0,46.94,0c.23,0,.46,0,.69,0,1.12.1,1.42.4,1.47,1.49.08,1.67.18,3.34.2,5,.08,7.85.6,15.69,0,23.55a54.82,54.82,0,0,1-4.23,18.81,37.18,37.18,0,0,1-8.69,12.39A12,12,0,0,1,265.3,254a28.7,28.7,0,0,1-5.9-1.34c-7.93-2.89-14.09-7.75-17.2-15.93a75.51,75.51,0,0,1-4.42-17.93,127.57,127.57,0,0,1-.74-18.33c0-1.62.18-3.23.3-4.84C237.48,193.62,237.64,191.62,237.81,189.46Zm42.51,21.11c-2.57,1.21-3.12,2.52-2.57,5,.91,4.15-.36,5.78-3.3,6.95a17.52,17.52,0,0,1-1.95.71,3.79,3.79,0,0,1-1.06,0c-.5-3.87-.89-7.62-2.62-11.12a26.23,26.23,0,0,1-1.9-5.9c-.51-2.34-.71-4.75-1.06-7.26-4.08-1-8.05.38-12.17,1-.13,1-.23,1.81-.35,2.82l1.42-.84c1.41.4.65,1.93,1.76,2.8.31-.42.59-.86.92-1.26,1.07-1.31,2.37-.71,2.73.62a9.59,9.59,0,0,1,.4,3.4c-.18,1.88-1.81,2.41-3.31,1.21-.06,0-.2,0-.23,0l-1.57,2.39-2-2.71a15.29,15.29,0,0,0-.67,2.88,2.43,2.43,0,0,0,.69,1.81c1.66,1.16,4.76,2.24,7,.19a4.48,4.48,0,0,1,1.1-.47c.14,1.31.28,2.44.37,3.57a1.35,1.35,0,0,1-1,1.44,7.25,7.25,0,0,1-4.9.37,23.31,23.31,0,0,0-2.63-.6,5.28,5.28,0,0,0-.68,4.11l1.63-1.28c.44,1,.79,1.83,1.2,2.81.44-.52.71-.89,1-1.21.55-.56,1-1.51,1.89-1.3s1.14,1.35,1.38,2.22a4.79,4.79,0,0,1,.09,1.2c0,.81,0,1.62,0,2.43a6.76,6.76,0,0,0,1.38,4.36,7.65,7.65,0,0,0,4,2.87c.73.25,1.44.57,2.31.92-.82,1.35-1.49,2.49-2.2,3.61-.18.27-.47.67-.72.68-1.61.07-3.32.8-4.76-.64A18.13,18.13,0,0,0,258.1,237c-.1,1.45-.17,2.51-.26,3.79l1.36-.81,1.13,2.32a6.76,6.76,0,0,0,.49-.71,1.79,1.79,0,0,1,2.12-1c1.37.13,2.76,0,4.15,0a1.38,1.38,0,0,0,1.22-.76c1.06-1.44,2.2-2.82,3.28-4.24.57-.76,1.08-1.56,1.69-2.45l-1.18-.43a1.41,1.41,0,0,1-1-1.46c-.1-2.6.52-3.43,3.1-4.2.33-.09.67-.19,1-.31a7.19,7.19,0,0,0,5.09-7.72,17,17,0,0,0-.62-2.7,6.34,6.34,0,0,1,.36-5C280.12,211.1,280.18,210.9,280.32,210.57Zm-31-6.7a7.19,7.19,0,0,0-.69.64c-1.26,1.45-1.25,1.45-2.79.17-.84-.7-1.11-.7-2-.12a22.68,22.68,0,0,1,1.11,2.2,1.79,1.79,0,0,0,1.71,1.21c.73.06,1.11-.38,1.47-1a27.74,27.74,0,0,1,1.7-2.24C249.81,204.68,249.63,204.35,249.36,203.87Zm23.71,3-.12-.51-5.43-.64.92,3.83Zm-5.71-2.56,4.85-3.88-.17-.31c-1,.2-1.91.37-2.84.62C266.83,201.34,266.74,201.53,267.36,204.28Zm5.28,6.86a5.64,5.64,0,0,0-3.73-.55l1.43,3.1Zm-5.06-11.29,2.47-4-.31-.31-3.2,2Z" transform="translate(0 -0.85)"/><path d="M257.31,169.36a2.17,2.17,0,0,0,2.15,1,11,11,0,0,0,5.07-1.59c.31-.17.48-.73.58-1.15a9,9,0,0,1,3.29-5.15,5.1,5.1,0,0,1,2.16-1,1.38,1.38,0,0,1,1.61,2,7.9,7.9,0,0,1-1.66,2.39c-1.27,1.24-2.68,2.34-4,3.52a2.43,2.43,0,0,0,2.66,1.82,7.54,7.54,0,0,0,7.8-7.52c0-1.37-.2-2.74-.3-4.14,3.05,4.31,2,9.2-2.44,11.66a12.54,12.54,0,0,1-2.72,1.08c-2.91.77-4.45.24-6.39-2.07-1.4.48-2.79,1-4.21,1.43a4.22,4.22,0,0,1-4.93-1.53,1.82,1.82,0,0,0-1.15-.53c-2.58-.37-3.61-1.92-2.8-4.4a8.19,8.19,0,0,1,.88-1.87,18.44,18.44,0,0,1,6.67-6.4,2,2,0,0,1,2.24-.26c-.47.36-.81.63-1.16.86a21.77,21.77,0,0,0-5.85,5.59,10.34,10.34,0,0,0-1.34,2.6c-.47,1.45.07,2,1.8,2a6.33,6.33,0,0,1,2.76-4.54,6.52,6.52,0,0,1,2-.92c1.17-.26,1.89.46,1.77,1.67a5.21,5.21,0,0,1-1.82,3.26C259.18,168,258.26,168.62,257.31,169.36Zm9.14-1.62a15.64,15.64,0,0,0,4.8-4.23c.17-.27.06-.71.09-1.1C268.9,162.61,266.87,164.8,266.45,167.74Zm-5.9-4a3.72,3.72,0,0,0-3.45,3.64C258.7,166.53,260,165.59,260.55,163.77Z" transform="translate(0 -0.85)"/><path d="M272.33,89.83l4.32-4.45-6.72-6.17L264,85.54c0-1.32.15-1.6,2.05-3.69l3.1-3.36-5.49-4.94a54.52,54.52,0,0,0-6.51,8.39c-.08-.69-.23-1-.12-1.25a23.18,23.18,0,0,1,1.81-2.94c1.22-1.6,2.55-3.12,4-4.81l-2-1.83.12-.22,2.45,1.45c.43-.43.86-.88,1.32-1.3,1.52-1.42,3-2.84,4.59-4.21a2.79,2.79,0,0,1,1.65-.64l-6.86,6.71,5.81,4.86a84.51,84.51,0,0,1,7.06-6.5l.29.29-6.58,6.87,6.83,6.12c1.91-1.61,3.74-3.15,5.56-4.7l.3.31-5.13,5,4.92,4.74-.29.35a51.23,51.23,0,0,1-5.47-4.16l-4.67,4.17Z" transform="translate(0 -0.85)"/><path d="M18.93,239.83c-1.55-2.2-3.09-4.4-4.78-6.79,1.93-1.13,3.84-2.15,6.21-1.76a1.43,1.43,0,0,1,1.34,1.35,10,10,0,0,1,0,2.38A9.24,9.24,0,0,1,18.93,239.83Z" transform="translate(0 -0.85)"/><path class="cls-3" d="M175.29,214.58c2.88-.49,5.74.56,8.6,1.72a5.57,5.57,0,0,1,3,3.24,39.6,39.6,0,0,1,2.77,10,33.78,33.78,0,0,1,.08,9.15,17.71,17.71,0,0,1-6.81,12.22,21.37,21.37,0,0,1-15.24,5,12.92,12.92,0,0,1-9.81-5.42c-3.89-5.16-4.39-10.89-3.13-17s4.65-11,9-15.33a12.52,12.52,0,0,1,8.75-3.62C173.27,214.55,174.13,214.58,175.29,214.58Zm-.12,19.54-.12,0c0-.41,0-.81-.06-1.21-.08-.61-.36-1.24-1-1.21a3.11,3.11,0,0,0-1.64.7,1.65,1.65,0,0,0-.35,1.12c-.05,1.15-.05,2.3,0,3.45,0,.7.28,1.27,1.05,1.37a1.27,1.27,0,0,0,1.42-1C174.73,236.25,174.93,235.18,175.17,234.12Z" transform="translate(0 -0.85)"/><path class="cls-3" d="M136.94,232c-.09.57-.1.86-.18,1.14-1,3.67-1.83,7.39-3,11a14.15,14.15,0,0,1-7.21,8.48,10.92,10.92,0,0,1-2.57,1,5,5,0,0,1-6.26-3.27,15.72,15.72,0,0,1,.38-12.93,20.44,20.44,0,0,1,2.94-4.45,71.46,71.46,0,0,1,6.93-7c3-2.52,4.85-2,6.85,1.28a22.85,22.85,0,0,1,1.34,2.42C136.52,230.42,136.73,231.32,136.94,232Zm-12.74,6.18c-.3-.43-.51-1-.93-1.26-.59-.33-1.12.11-1.37.67a27,27,0,0,0-1.22,3.2,1.15,1.15,0,0,0,.87,1.47,1.13,1.13,0,0,0,1.42-.7C123.42,240.46,123.76,239.37,124.2,238.13Z" transform="translate(0 -0.85)"/><path class="cls-3" d="M233.39,113a13.86,13.86,0,0,1,7.2-.09c3.9.73,7.8,1.59,11.61,2.67q11.91,3.36,24,5.8a7.36,7.36,0,0,1,1.8.56c-14.1-.79-28.13-2.32-42.26-3.7a8.85,8.85,0,0,1,1-.4c1.55-.46,3.11-.86,4.64-1.37.37-.12.62-.58.93-.88-.33-.27-.63-.69-1-.78-2-.5-3.93-.9-5.9-1.34Z" transform="translate(0 -0.85)"/><path class="cls-3" d="M280.32,210.57c-.14.33-.2.53-.3.71a6.34,6.34,0,0,0-.36,5,17,17,0,0,1,.62,2.7,7.19,7.19,0,0,1-5.09,7.72c-.32.12-.66.22-1,.31-2.58.77-3.2,1.6-3.1,4.2a1.41,1.41,0,0,0,1,1.46l1.18.43c-.61.89-1.12,1.69-1.69,2.45-1.08,1.42-2.22,2.8-3.28,4.24a1.38,1.38,0,0,1-1.22.76c-1.39,0-2.78.09-4.15,0a1.79,1.79,0,0,0-2.12,1,6.76,6.76,0,0,1-.49.71L259.2,240l-1.36.81c.09-1.28.16-2.34.26-3.79a18.13,18.13,0,0,1,1.88,1.41c1.44,1.44,3.15.71,4.76.64.25,0,.54-.41.72-.68.71-1.12,1.38-2.26,2.2-3.61-.87-.35-1.58-.67-2.31-.92a7.65,7.65,0,0,1-4-2.87,6.76,6.76,0,0,1-1.38-4.36c0-.81,0-1.62,0-2.43a4.79,4.79,0,0,0-.09-1.2c-.24-.87-.36-2-1.38-2.22s-1.34.74-1.89,1.3c-.31.32-.58.69-1,1.21-.41-1-.76-1.79-1.2-2.81l-1.63,1.28a5.28,5.28,0,0,1,.68-4.11,23.31,23.31,0,0,1,2.63.6,7.25,7.25,0,0,0,4.9-.37,1.35,1.35,0,0,0,1-1.44c-.09-1.13-.23-2.26-.37-3.57a4.48,4.48,0,0,0-1.1.47c-2.28,2-5.38,1-7-.19a2.43,2.43,0,0,1-.69-1.81,15.29,15.29,0,0,1,.67-2.88l2,2.71,1.57-2.39s.17-.06.23,0c1.5,1.2,3.13.67,3.31-1.21a9.59,9.59,0,0,0-.4-3.4c-.36-1.33-1.66-1.93-2.73-.62-.33.4-.61.84-.92,1.26-1.11-.87-.35-2.4-1.76-2.8l-1.42.84c.12-1,.22-1.82.35-2.82,4.12-.6,8.09-2,12.17-1,.35,2.51.55,4.92,1.06,7.26a26.23,26.23,0,0,0,1.9,5.9c1.73,3.5,2.12,7.25,2.62,11.12a3.79,3.79,0,0,0,1.06,0,17.52,17.52,0,0,0,1.95-.71c2.94-1.17,4.21-2.8,3.3-6.95C277.2,213.09,277.75,211.78,280.32,210.57Zm-15.5-8.95c-.06-.88-.08-1.81-1-2.08s-1.45.49-2,1.12a2.34,2.34,0,0,0-.33.6,1.78,1.78,0,0,0,.83,2.47,2.19,2.19,0,0,0,2.35-1.33A5,5,0,0,0,264.82,201.62Z" transform="translate(0 -0.85)"/><path class="cls-3" d="M249.36,203.87c.27.48.45.81.49.89a27.74,27.74,0,0,0-1.7,2.24c-.36.59-.74,1-1.47,1a1.79,1.79,0,0,1-1.71-1.21,22.68,22.68,0,0,0-1.11-2.2c.91-.58,1.18-.58,2,.12,1.54,1.28,1.53,1.28,2.79-.17A7.19,7.19,0,0,1,249.36,203.87Z" transform="translate(0 -0.85)"/><path class="cls-3" d="M273.07,206.84l-4.63,2.68-.92-3.83,5.43.64Z" transform="translate(0 -0.85)"/><path class="cls-3" d="M267.36,204.28c-.62-2.75-.53-2.94,1.84-3.57.93-.25,1.89-.42,2.84-.62l.17.31Z" transform="translate(0 -0.85)"/><path class="cls-3" d="M272.64,211.14l-2.3,2.55-1.43-3.1A5.64,5.64,0,0,1,272.64,211.14Z" transform="translate(0 -0.85)"/><path class="cls-3" d="M267.58,199.85l-1-2.38,3.2-2,.31.31Z" transform="translate(0 -0.85)"/><path class="cls-3" d="M266.45,167.74c.42-2.94,2.45-5.13,4.89-5.33,0,.39.08.83-.09,1.1A15.64,15.64,0,0,1,266.45,167.74Z" transform="translate(0 -0.85)"/><path class="cls-3" d="M260.55,163.77c-.52,1.82-1.85,2.76-3.45,3.64A3.72,3.72,0,0,1,260.55,163.77Z" transform="translate(0 -0.85)"/><path d="M175.17,234.12c-.24,1.06-.44,2.13-.75,3.17a1.27,1.27,0,0,1-1.42,1c-.77-.1-1-.67-1.05-1.37,0-1.15,0-2.3,0-3.45a1.65,1.65,0,0,1,.35-1.12,3.11,3.11,0,0,1,1.64-.7c.65,0,.93.6,1,1.21,0,.4,0,.8.06,1.21Z" transform="translate(0 -0.85)"/><path d="M124.2,238.13c-.44,1.24-.78,2.33-1.23,3.38a1.13,1.13,0,0,1-1.42.7,1.15,1.15,0,0,1-.87-1.47,27,27,0,0,1,1.22-3.2c.25-.56.78-1,1.37-.67C123.69,237.11,123.9,237.7,124.2,238.13Z" transform="translate(0 -0.85)"/><path d="M264.82,201.62a5,5,0,0,1-.11.78,2.19,2.19,0,0,1-2.35,1.33,1.78,1.78,0,0,1-.83-2.47,2.34,2.34,0,0,1,.33-.6c.51-.63,1.05-1.38,2-1.12S264.76,200.74,264.82,201.62Zm-1.25-1.15a1.7,1.7,0,0,0-1.21,1.53,1,1,0,0,0,.41.8,1,1,0,0,0,.85-.31A1.57,1.57,0,0,0,263.57,200.47Z" transform="translate(0 -0.85)"/><path class="cls-3" d="M263.57,200.47a1.57,1.57,0,0,1,.05,2,1,1,0,0,1-.85.31,1,1,0,0,1-.41-.8A1.7,1.7,0,0,1,263.57,200.47Z" transform="translate(0 -0.85)"/><g class="cls-4"><g class="cls-4"><path class="cls-5" d="M369.33,339.25c3.24-.69,6.49-1.36,9.76-1.93,3.9-.67,7.81-1.27,11.74-1.76,3.68-.46,7.37-.87,11.07-1.12a81.11,81.11,0,0,1,11.87-.24,4.47,4.47,0,0,1,.8.14,6.22,6.22,0,0,1-2,.45c-3.51.38-7,.72-10.54,1.1-4.74.52-9.48,1.13-14.19,1.87-5.66.89-11.3,1.9-16.9,3.13-2.39.52-4.77,1.12-7.13,1.75a5.51,5.51,0,0,0-1.4.63,79,79,0,0,1-11.31,5.45,10.12,10.12,0,0,1-2.83.7,1.23,1.23,0,0,1-.95-2.24,9.16,9.16,0,0,1,2.28-1.47,47.34,47.34,0,0,1,9.37-3.6,28.9,28.9,0,0,0,8.73-4.16,62.1,62.1,0,0,0,9.68-7.49,10.49,10.49,0,0,0,2-2.54c.4-.77.28-1-.58-1a17.31,17.31,0,0,0-5.35.81,109,109,0,0,0-13.66,4.9,10,10,0,0,1-1.19.45,1,1,0,0,1-1.2-.45,1,1,0,0,1,.29-1.24c.52-.42,1.09-.79,1.65-1.17a101.6,101.6,0,0,0,8.38-6c.15-.13.33-.22.42-.42-.24-.09-.42.06-.6.13a100.52,100.52,0,0,0-11.32,5.43q-5.54,3-10.9,6.26c-.78.48-1.3.48-1.66,0s-.19-1,.53-1.61A167.67,167.67,0,0,0,360,319.5a21.3,21.3,0,0,0,3.06-3.95c.17-.3.49-.69.3-.95s-.63,0-1,0a21.37,21.37,0,0,0-4.56,1.75,106.12,106.12,0,0,0-12.94,7.6c-.14.1-.29.18-.32.39a10.87,10.87,0,0,1-1.89,4.25,55.52,55.52,0,0,1-8.86,10.19,59.11,59.11,0,0,1-8.9,7,10,10,0,0,1-3.82,1.68,1.63,1.63,0,0,1-1.94-2.17,8.27,8.27,0,0,1,1.51-2.74,58.61,58.61,0,0,1,7.45-7.82,134.64,134.64,0,0,1,14-11.2l.36-.26a4.79,4.79,0,0,0-2.63,0,44.41,44.41,0,0,0-8.87,3.09c-2.75,1.2-5.46,2.47-8.2,3.71a5.48,5.48,0,0,1-1.19.44,1,1,0,0,1-1.07-.41,1,1,0,0,1,0-1.1,3.49,3.49,0,0,1,.77-.81c3.71-3.26,7.45-6.49,11-9.93a58,58,0,0,0,6.26-6.76,7.65,7.65,0,0,0,.91-1.46c-.27-.12-.47,0-.66.12a33.6,33.6,0,0,0-6.22,3.68,47.55,47.55,0,0,0-9.39,8.47c-.34.41-.66.84-1,1.27a2.52,2.52,0,0,0-.56,1.2,2.52,2.52,0,0,1-.83,1.4.74.74,0,0,1-.83.2.78.78,0,0,1-.51-.75,2.41,2.41,0,0,1,.31-1.17,17.71,17.71,0,0,1,2.91-4.25,52.66,52.66,0,0,1,13.86-11,9.61,9.61,0,0,1,2.91-1.15c1.45-.26,2.35.71,1.91,2.11a10.57,10.57,0,0,1-2.23,3.54A98.42,98.42,0,0,1,330,323c-1.24,1.14-2.51,2.25-3.76,3.38.25.1.45-.06.65-.15A81.8,81.8,0,0,1,337.67,322a10.93,10.93,0,0,1,4.61-.59,2.45,2.45,0,0,1,1.41.59c.31.31.5.21.8,0a110.4,110.4,0,0,1,10.12-6.1,35.94,35.94,0,0,1,6.83-2.95,4.58,4.58,0,0,1,2.46-.19,1.74,1.74,0,0,1,1.36,2.09,5.53,5.53,0,0,1-.86,2.05,31.92,31.92,0,0,1-4.09,5c-2.14,2.23-4.4,4.35-6.69,6.42l-.31.3c-.06.05-.18.11-.12.18s.17,0,.24-.06c2.15-1.13,4.29-2.28,6.46-3.38a57.19,57.19,0,0,1,8-3.52,5.72,5.72,0,0,1,1.92-.39,1.26,1.26,0,0,1,1.17,1.93,5.38,5.38,0,0,1-1.22,1.47,39.8,39.8,0,0,1-3.73,3l-.32.28s-.1.08-.09.09.11,0,.17,0c2.6-.89,5.18-1.82,7.85-2.46a18.74,18.74,0,0,1,5-.71c2.54.07,3.49,1.72,2.26,3.95a12.33,12.33,0,0,1-2,2.55,56.84,56.84,0,0,1-9.17,7.26c-.17.11-.34.24-.51.37l-.16.1c.08.11.17.05.25,0M321,345.67a3.52,3.52,0,0,0,1.08-.35,17.76,17.76,0,0,0,2.81-1.61,68,68,0,0,0,11.82-10.39,38.83,38.83,0,0,0,5-6.57c.09-.17.3-.32.15-.62l-.57.4c-3.05,2.21-6,4.53-8.87,7a84.5,84.5,0,0,0-9.35,9.09,12.44,12.44,0,0,0-2.06,3.06" transform="translate(0 -0.85)"/></g></g></svg>