<?xml version="1.0" encoding="UTF-8" standalone="no"?>
<!DOCTYPE svg PUBLIC "-//W3C//DTD SVG 1.1//EN" "http://www.w3.org/Graphics/SVG/1.1/DTD/svg11.dtd">
<svg width="100%" height="100%" viewBox="0 0 1702 2292" version="1.1" xmlns="http://www.w3.org/2000/svg" xmlns:xlink="http://www.w3.org/1999/xlink" xml:space="preserve" xmlns:serif="http://www.serif.com/" style="fill-rule:evenodd;clip-rule:evenodd;stroke-linejoin:round;stroke-miterlimit:2;">
    <g id="Layer-1" serif:id="Layer 1" transform="matrix(4.16667,0,0,4.16667,0,0)">
        <g transform="matrix(1,0,0,1,112.6,226.093)">
            <path d="M0,83.064C-0.172,83.19 -0.345,83.316 -0.518,83.441C-0.197,83.827 0.122,84.212 0.441,84.598C0.555,84.518 0.667,84.438 0.779,84.358C0.52,83.926 0.26,83.496 0,83.064M-6.355,72.816C-7.233,72.979 -7.837,73.09 -8.75,73.26C-7.61,74.282 -7.354,75.758 -5.504,75.634C-5.798,74.661 -6.037,73.87 -6.355,72.816M13.16,58.406C9.631,59.786 11.613,62.238 10.956,63.984C11.148,64.038 11.342,64.09 11.534,64.144C12.028,62.399 12.523,60.654 13.16,58.406M-21.697,33.112C-22.168,31.376 -22.906,31.031 -26.174,30.938C-25.902,31.709 -25.657,32.406 -25.409,33.112L-21.697,33.112ZM2.067,83.328C2.607,85.079 2.089,86.945 4.14,87.875C4.762,86.181 5.694,84.611 4.047,82.992C3.5,83.085 2.967,83.175 2.067,83.328M-3.858,75.54L-1.093,75.54C-1.413,74.197 -1.68,73.08 -1.969,71.865C-3.032,72.215 -3.836,72.481 -4.771,72.789C-4.434,73.806 -4.14,74.69 -3.858,75.54M8.303,74.849L7.799,74.588C7.019,74.956 6.238,75.322 5.276,75.775C5.463,77.451 5.645,79.089 5.827,80.728C6.039,80.747 6.251,80.764 6.463,80.783C7.076,78.805 7.689,76.827 8.303,74.849M0.218,81.836C-0.178,80.033 -0.527,78.439 -0.903,76.72C-1.837,76.771 -2.563,76.811 -3.33,76.854C-2.133,81.832 -2.133,81.832 0.218,81.836M2.443,43.99C4.721,43.286 6.667,42.684 8.612,42.083C8.614,41.938 8.616,41.794 8.617,41.65C6.525,41.168 4.433,40.686 2.097,40.148C2.218,41.487 2.308,42.482 2.443,43.99M0.669,76.746C1.092,78.712 1.438,80.327 1.829,82.145C2.732,82.005 3.466,81.892 4.395,81.749C4.168,79.748 3.969,77.98 3.752,76.066C2.612,76.317 1.783,76.501 0.669,76.746M0.494,75.603C1.761,75.293 2.716,75.06 3.778,74.8C3.549,72.867 3.348,71.172 3.144,69.451C2.517,69.451 2.123,69.438 1.729,69.453C-0.452,69.534 -0.77,69.915 -0.346,72.045C-0.131,73.124 0.156,74.186 0.494,75.603M10.999,51.431L10.999,58.214C12.12,58.05 13.156,57.806 13.425,56.811C14.048,54.502 14.546,52.147 14.249,49.476C12.999,50.229 11.993,50.834 10.999,51.431M-9.291,36.604C-9.576,35.294 -9.854,34.02 -10.132,32.744C-11.996,32.645 -13.665,32.592 -15.327,32.456C-16.911,32.326 -18.48,31.735 -20.109,32.146C-20.059,32.533 -20.079,32.802 -20.012,32.826C-16.519,34.072 -13.017,35.297 -9.291,36.604M-2.258,62.18C-2.353,62.323 -2.448,62.466 -2.544,62.609C-0.646,64.131 0.304,66.06 0.146,68.663C1.22,68.463 2.092,68.302 3.081,68.12C2.893,65.911 2.727,63.958 2.543,61.805C0.789,61.942 -0.734,62.061 -2.258,62.18M4.683,68.949C4.87,70.774 5.051,72.54 5.236,74.352C9.401,73.207 10.348,71.524 9.343,67.339C7.855,67.853 6.377,68.364 4.683,68.949M4.211,61.564C4.143,63.529 4.187,65.522 4.771,67.818C6.453,67.186 7.973,66.615 9.363,66.092L9.363,60.385C7.58,60.793 6.036,61.147 4.211,61.564M10.641,42.059C10.602,44.9 10.506,47.545 10.882,50.439C12.095,49.844 12.975,49.471 13.787,48.986C14.161,48.762 14.606,48.353 14.672,47.969C14.996,46.048 15.206,44.107 15.471,42.059L10.641,42.059ZM0.726,24.968C0.855,26.572 0.979,28.086 1.112,29.74C3.804,28.862 6.197,28.082 8.615,27.294L8.615,23.333C5.941,23.887 3.419,24.41 0.726,24.968M-3.746,54.207C-3.305,56.637 -2.918,58.772 -2.496,61.095C-0.82,60.955 0.713,60.826 2.467,60.677C2.202,58.192 1.972,56.024 1.735,53.804C-0.28,53.952 -2.009,54.079 -3.746,54.207M9.262,59.209L9.262,52.189C7.174,52.688 5.355,53.122 3.296,53.614C3.507,55.865 3.711,58.042 3.944,60.53C5.899,60.044 7.628,59.615 9.262,59.209M-4.074,45.708C-5.447,48.282 -5.096,50.633 -4.06,53.244C-2.216,53.089 -0.363,52.934 1.601,52.77C1.404,50.065 1.552,47.62 0.823,45.323C-0.967,45.464 -2.549,45.588 -4.074,45.708M-11.404,26.552C-14.931,26.377 -18.237,26.213 -21.788,26.037C-21.342,27.661 -20.951,29.086 -20.553,30.538C-17.099,30.724 -13.944,31.743 -10.399,31.351C-10.766,29.599 -11.086,28.071 -11.404,26.552M9.122,42.875C6.753,43.665 4.67,44.359 2.408,45.113C3.002,47.539 2.571,50.029 3.443,52.57C5.512,52.032 7.324,51.56 9.122,51.092L9.122,42.875ZM-0.831,24.865C-4.099,25.349 -6.989,25.555 -9.896,26.542C-9.489,28.294 -9.121,29.879 -8.729,31.565C-5.798,31.258 -2.95,32.44 -0.37,30.361C-0.517,28.616 -0.66,26.899 -0.831,24.865M0.466,39.696C-0.928,39.083 -2.055,38.674 -3.097,38.11C-5.584,36.767 -5.878,35.727 -4.661,33.116C-4.617,33.021 -4.724,32.856 -4.757,32.735L-8.56,32.735C-8.134,34.663 -8.147,36.662 -7.262,38.113C-6.013,40.159 -4.681,42.078 -4.582,44.817C-2.612,44.601 -0.932,44.417 0.961,44.209C0.773,42.495 0.62,41.101 0.466,39.696M-20.202,63.685C-21.103,66.786 -19.785,69.335 -16.622,70.388C-12.194,71.863 -7.661,71.743 -3.166,70.618C-2.538,70.46 -1.854,69.973 -1.486,69.439C-0.617,68.176 -0.916,66.15 -1.968,64.997C-3.327,63.507 -5.955,62.608 -7.249,63.298C-9.984,64.759 -12.871,64.966 -15.857,64.474C-17.262,64.243 -18.658,63.967 -20.202,63.685M17.591,17.605C16.385,17.164 15.115,16.894 14.049,16.275C9.716,13.762 5.087,13.059 0.189,13.718C-2.739,14.113 -5.661,14.551 -8.595,14.905C-14.498,15.615 -20.255,16.844 -25.604,19.557C-26.577,20.05 -27.506,20.629 -28.267,21.062C-27.92,22.758 -27.552,24.144 -27.365,25.553C-26.86,29.376 -26.893,29.384 -23.242,30.066C-23.036,30.104 -22.804,30 -22.43,29.936C-22.966,27.916 -22.478,25.578 -25.371,24.823C-26.681,24.481 -26.912,22.571 -26.039,21.348C-25.305,20.32 -24.267,19.817 -23.013,19.616C-21.846,19.429 -20.696,19.108 -19.555,18.789C-18.326,18.445 -17.122,18.011 -15.896,17.657C-9.314,15.76 -2.513,15.47 4.253,14.997C8.626,14.69 12.369,16.793 16.353,18.416C15.098,21.241 11.836,20.908 10.102,22.926C10.188,24.171 10.278,25.485 10.382,26.991C12.688,26.692 14.707,26.429 16.592,26.184C16.94,23.187 17.262,20.43 17.591,17.605M-25.5,50.264C-27.845,53.017 -27.268,58.756 -22.955,60.696C-19.339,62.322 -15.561,63.204 -11.571,62.882C-8.995,62.675 -6.881,61.421 -5.009,59.735C-4.276,59.076 -3.786,58.269 -4.114,57.187C-4.702,55.245 -5.596,53.494 -7.137,52.123C-7.771,51.558 -8.387,51.314 -9.291,51.671C-11.906,52.704 -14.645,52.488 -17.32,52.047C-20.051,51.598 -22.736,50.878 -25.5,50.264M-21.77,68.958C-21.325,69.935 -20.961,70.96 -20.419,71.881C-18.798,74.635 -18.016,77.646 -17.888,80.779C-17.771,83.643 -18.052,86.521 -18.044,89.392C-18.036,92.732 -17.964,96.076 -17.792,99.411C-17.736,100.502 -17.381,101.638 -16.119,102.072C-14.533,101.184 -13.974,100.81 -13.662,99.087C-13.197,96.516 -12.978,93.889 -12.822,91.276C-12.671,88.734 -12.812,86.174 -12.661,83.631C-12.603,82.646 -12.309,81.336 -10.948,81.431C-9.735,81.515 -9.75,82.758 -9.632,83.682C-9.483,84.844 -9.148,85.849 -8.068,86.488C-6.839,87.215 -6.165,87.053 -5.697,85.681C-4.891,83.317 -4.96,80.909 -6.158,78.722C-7.223,76.778 -8.594,75.001 -9.893,73.055C-14.163,72.96 -18.464,72.643 -21.77,68.958M168.453,50.132C168.346,50.153 168.238,50.174 168.131,50.195C168.104,50.35 168.042,50.509 168.056,50.66C169.364,64.896 170.756,79.126 171.962,93.37C172.589,100.779 172.647,108.213 171.878,115.631C171.683,117.512 171.515,119.397 171.284,121.803C173.013,120.333 173.616,118.773 174.04,117.202C176.75,107.158 178.093,96.953 176.299,86.623C174.812,78.056 172.846,69.571 171.031,61.062C170.251,57.402 169.317,53.774 168.453,50.132M-27.447,34.65C-27.951,36.313 -28.65,38.181 -29.076,40.11C-29.966,44.145 -28.35,47.191 -24.507,48.736C-20.69,50.27 -16.687,50.914 -12.574,50.838C-10.681,50.804 -8.927,50.216 -7.504,48.986C-6.821,48.397 -6.071,47.505 -5.979,46.679C-5.666,43.901 -6.013,41.1 -8.441,39.317C-12.378,36.428 -16.853,34.818 -21.778,34.659C-23.505,34.603 -25.235,34.65 -27.447,34.65M41.13,-104.497C37.289,-97.817 36.702,-90.978 37.679,-83.935C37.949,-81.984 38.563,-80.041 39.296,-78.205C40.064,-76.276 41.701,-75.2 43.803,-75.145C49.527,-74.996 54.642,-76.539 58.236,-81.264C63.442,-88.105 64.895,-96.12 65.203,-104.615L58.71,-104.615C58.341,-100.258 57.981,-96.057 57.631,-91.853C57.56,-90.995 57.736,-89.842 56.487,-89.877C55.268,-89.912 55.43,-91.041 55.419,-91.912C55.418,-91.992 55.43,-92.071 55.435,-92.151C55.642,-95.581 55.854,-99.01 56.05,-102.441C56.088,-103.125 56.055,-103.814 56.055,-104.497L41.13,-104.497ZM177.696,107.859C182.445,108.045 186.99,107.107 191.524,106.254C210.03,102.774 227.903,97.121 245.435,90.33C253.485,87.21 261.441,83.867 268.886,79.455C271.211,78.078 273.365,76.397 275.521,74.754C276.311,74.153 277.163,73.415 276.962,72.102C275.619,71.029 273.957,71.123 272.42,71.278C268.851,71.636 265.263,72.012 261.754,72.73C247.241,75.697 233.222,80.308 219.399,85.589C206.094,90.673 193.277,96.773 180.851,103.713C180.086,104.14 179.374,104.664 178.645,105.151C177.754,105.746 177.386,106.559 177.696,107.859M131.292,-109.85C127.18,-110.127 111.066,-108.57 109.345,-107.75C109.231,-105.134 109.171,-102.501 108.986,-99.878C108.847,-97.893 108.567,-95.916 108.312,-93.941C108.21,-93.153 107.782,-92.565 106.898,-92.624C106.016,-92.682 105.676,-93.328 105.666,-94.115C105.653,-95.233 105.663,-96.356 105.763,-97.468C106.024,-100.411 106.347,-103.348 106.626,-106.29C106.676,-106.806 106.633,-107.331 106.633,-107.984C99.939,-107.622 93.44,-107.27 86.934,-106.917C85.16,-100.679 84.671,-94.602 85.609,-88.424C86.394,-83.264 89.246,-79.721 93.961,-77.513C100.311,-74.539 106.989,-73.554 113.839,-74.569C121.023,-75.633 126.148,-79.599 128.636,-86.622C130.193,-91.019 131.012,-95.573 131.471,-100.195C131.785,-103.365 132.134,-106.55 131.292,-109.85M131.393,156.518C130.615,160.853 125.886,302.981 126.431,305.346C127.984,305.443 129.576,305.551 131.169,305.639C142.507,306.264 153.844,306.923 165.185,307.492C172.212,307.843 179.246,308.064 186.278,308.321C187.318,308.359 188.363,308.266 189.406,308.234C189.41,308.066 189.414,307.897 189.418,307.728C188.592,307.515 187.775,307.244 186.937,307.097C175.049,305.023 163.156,302.967 151.266,300.905C145.99,299.99 140.709,299.096 135.441,298.132C133.614,297.798 133.615,297.683 133.855,295.948C133.966,295.157 134.065,294.362 134.114,293.565C134.838,281.753 135.564,269.942 136.268,258.129C137.338,240.169 138.395,222.21 139.448,204.249C139.874,196.984 140.304,189.719 140.663,182.452C140.713,181.459 140.606,180.319 140.16,179.462C136.591,172.622 134.034,165.408 131.978,157.996C131.859,157.57 131.653,157.168 131.393,156.518M121.902,305.392C117.527,254.358 113.153,203.34 108.774,152.263C106.869,152.173 105.278,152.111 103.688,152.02C102.146,151.931 100.606,151.814 98.932,151.701C99.299,155.163 99.615,158.261 99.957,161.358C101.645,176.618 103.35,191.875 105.032,207.134C106.556,220.963 108.064,234.794 109.569,248.626C111.248,264.047 112.919,279.469 114.569,294.894C114.657,295.716 114.521,296.564 114.489,297.414C112.851,297.566 111.502,297.673 110.157,297.82C102.209,298.687 94.255,299.507 86.314,300.453C77.424,301.51 68.546,302.675 59.665,303.818C58.731,303.938 57.818,304.222 56.896,304.43C60.632,305.838 116.51,306.355 121.902,305.392M118.515,-142.286C118.411,-144.703 117.358,-146.549 115.356,-147.624C113.401,-148.674 111.32,-149.56 109.201,-150.219C103.71,-151.927 98.179,-153.514 92.641,-155.066C88.617,-156.193 84.712,-157.543 80.35,-157.475C75.014,-157.391 69.656,-158.258 64.317,-157.464C59.578,-156.759 54.825,-156.067 50.148,-155.049C41.009,-153.061 31.974,-150.669 23.327,-147.002C18.482,-144.946 14.169,-142.116 10.51,-138.321C7.644,-135.348 5.436,-131.923 3.998,-128.064C2.624,-124.378 3.767,-122.287 7.545,-121.16C8.385,-120.91 9.252,-120.695 10.121,-120.612C12.428,-120.394 14.74,-120.128 17.053,-120.111C26.356,-120.043 35.542,-121.329 44.719,-122.682C52.337,-123.806 59.778,-125.571 66.869,-128.658C68.256,-129.262 69.68,-129.828 71.138,-130.216C84.329,-133.725 97.525,-137.212 110.735,-140.651C113.27,-141.312 115.865,-141.735 118.515,-142.286M16.195,41.986C15.971,52.714 13.384,62.984 10.063,72.649C10.877,74.168 11.558,75.246 12.056,76.402C13.437,79.608 15.692,82.028 18.623,83.83C20.117,84.749 21.667,85.598 23.256,86.34C30.536,89.741 38.221,91.383 46.244,91.512C51.788,91.601 57.261,91.089 62.638,89.679C63.586,89.431 64.402,89.211 64.789,88.085C67.04,81.52 71.106,76.104 75.754,71.076C80.692,65.731 85.621,60.376 90.608,55.077C94.784,50.64 98.009,45.596 99.872,39.822C101.39,35.119 102.486,30.276 103.667,25.471C104.157,23.474 104.38,21.411 104.725,19.378C103.326,21.676 102.416,24.14 101.16,26.412C91.629,43.671 77.284,54.906 58.342,60.258C51.766,62.116 45.215,61.827 38.774,59.49C35.676,58.366 33.075,56.562 31.319,53.736C29.029,50.049 27.167,46.122 26.268,41.878C25.834,39.83 26.073,37.609 26.218,35.48C26.292,34.394 26.849,33.345 27.153,32.269C28.02,29.206 27.36,28.101 24.266,27.608C23.089,27.42 21.877,27.34 20.687,27.383C18.69,27.454 16.694,27.615 14.707,27.823C9.17,28.401 3.865,29.804 -1.06,32.467C-1.829,32.883 -2.604,33.335 -3.259,33.904C-4.338,34.839 -4.32,35.628 -3.181,36.434C-2.407,36.981 -1.533,37.465 -0.633,37.736C5.64,39.626 11.882,41.842 18.601,39.918C18.985,39.808 19.489,40.112 19.937,40.224C19.941,40.408 19.945,40.591 19.95,40.775C18.848,41.131 17.745,41.486 16.195,41.986M181.679,100.939C181.863,101.115 182.048,101.291 182.232,101.465C185.686,99.704 189.154,97.972 192.587,96.171C196.135,94.311 199.228,91.792 202.465,89.451C217.711,78.428 232.427,66.756 246.568,54.356C258.488,43.904 269.94,32.977 280.217,20.873C284.413,15.93 288.471,10.865 291.516,5.109C292.625,3.012 293.589,0.752 294.118,-1.549C294.937,-5.114 293.344,-6.82 289.669,-6.861C286.815,-6.893 284.145,-6.058 281.514,-5.091C276.16,-3.125 271.183,-0.403 266.366,2.619C253.678,10.58 242.528,20.385 232.325,31.29C217.793,46.823 205.266,63.877 194.024,81.911C191.109,86.587 187.866,91.059 184.826,95.66C183.698,97.368 182.724,99.176 181.679,100.939M178.103,104.596C178.772,103.667 179.178,103.216 179.455,102.699C180.058,101.572 180.582,100.403 181.163,99.263C192.053,77.896 203.101,56.607 213.792,35.142C223.127,16.398 232.163,-2.498 241.11,-21.431C243.593,-26.684 245.408,-32.268 247.284,-37.784C247.962,-39.778 248.109,-42.013 248.154,-44.146C248.194,-46.077 246.982,-46.93 245.107,-46.388C243.437,-45.905 241.699,-45.307 240.29,-44.329C236.555,-41.736 232.765,-39.151 229.379,-36.134C214.741,-23.087 203.436,-7.489 194.846,10.084C184.356,31.545 178.579,54.257 177.209,78.088C177.077,80.383 177.221,82.73 177.551,85.007C178.381,90.733 178.818,96.45 178.112,102.218C178.04,102.811 178.103,103.421 178.103,104.596M120.068,-142.402C120.555,-143.315 120.766,-143.646 120.915,-144.002C122.661,-148.147 122.73,-152.4 121.659,-156.704C119.274,-166.29 115.259,-175.138 109.194,-182.948C101.529,-192.819 92.561,-201.352 81.863,-207.884C64.113,-218.725 44.587,-223.656 23.976,-224.631C13.541,-225.124 3.226,-223.762 -7.048,-222.071C-14.164,-220.9 -21.157,-219.269 -27.878,-216.6C-31.38,-215.209 -34.775,-213.606 -37.813,-211.343C-41.433,-208.645 -42.317,-205.561 -40.436,-201.482C-39.856,-200.226 -38.913,-199.01 -37.84,-198.139C-36.495,-197.047 -34.903,-196.207 -33.318,-195.47C-25.199,-191.698 -17.035,-188.021 -8.912,-184.259C1.642,-179.371 12.56,-175.492 23.881,-172.881C35.092,-170.295 46.387,-168.068 57.64,-165.662C75.794,-161.779 93.49,-156.211 111.283,-151.007C115.403,-149.802 119.059,-147.841 120.068,-142.402M196.696,188.932L196.512,188.244C195.517,188.041 194.517,187.855 193.526,187.631C187.687,186.308 181.848,184.978 176.011,183.641C175.546,183.535 175.039,183.442 174.655,183.187C174.236,182.908 173.938,182.447 173.588,182.064C173.924,181.765 174.23,181.421 174.605,181.184C174.862,181.021 175.216,181.015 175.521,180.923C180.514,179.429 185.34,177.523 189.899,174.988C193.477,172.999 196.911,170.785 199.714,167.763C200.845,166.543 201.912,165.195 202.691,163.736C204.487,160.375 203.227,157.71 199.455,156.977C197.602,156.618 195.638,156.544 193.751,156.69C188.604,157.085 183.749,158.711 178.969,160.573C178.228,160.862 177.467,161.135 176.69,161.278C176.391,161.334 175.859,161.09 175.726,160.833C175.585,160.56 175.662,159.98 175.876,159.759C176.425,159.191 177.086,158.725 177.73,158.257C182.236,154.984 186.215,151.182 189.197,146.453C190.254,144.776 191.208,142.967 191.815,141.091C192.925,137.666 191.44,136.022 187.886,136.425C187.728,136.443 187.568,136.472 187.414,136.512C184.869,137.178 182.299,137.761 179.79,138.544C178.042,139.089 176.387,139.926 174.678,140.601C173.014,141.257 172.112,141.159 171.165,139.663C170.474,138.571 170.115,137.186 169.908,135.883C169.046,130.46 169.49,125.011 170.132,119.625C171.179,110.843 171.291,102.061 170.612,93.278C169.712,81.639 168.573,70.019 167.529,58.391C166.57,47.706 165.056,37.092 162.444,26.688C158.923,12.66 155.056,-1.282 151.422,-15.283C146.904,-32.688 142.164,-50.045 138.128,-67.563C135.909,-77.196 134.94,-87.116 133.395,-96.904C133.318,-97.386 133.12,-97.848 132.979,-98.32C132.579,-97.805 132.535,-97.337 132.432,-96.882C131.628,-93.382 131.051,-89.808 129.953,-86.401C127.611,-79.128 122.397,-74.776 114.985,-73.421C106.876,-71.938 99.05,-73.176 91.758,-77.158C87.716,-79.364 85.308,-82.82 84.453,-87.323C83.596,-91.841 83.556,-96.388 84.263,-100.931C84.552,-102.787 84.93,-104.628 85.283,-106.56C84.147,-106.664 83.222,-106.748 82.342,-106.829C82.215,-107.557 82.042,-108.137 82.026,-108.721C81.998,-109.817 81.845,-110.984 82.159,-111.991C82.368,-112.661 83.3,-113.106 83.959,-113.698C82.097,-115.241 84.29,-116.686 84.151,-118.304C84.011,-119.93 86.371,-119.385 87.3,-120.312C86.557,-122.589 86.818,-123.099 88.932,-123.508C89.48,-123.614 90.032,-123.734 90.588,-123.774C100.393,-124.485 110.198,-125.187 120.005,-125.887C122.528,-126.067 125.053,-126.235 127.914,-126.432C126.437,-130.399 125.383,-134.242 123.35,-137.702C121.641,-140.612 120.502,-141.172 117.22,-140.397C106.643,-137.897 96.073,-135.361 85.523,-132.748C75.571,-130.283 65.691,-127.595 57.212,-121.426C57.02,-121.287 56.771,-121.226 56.577,-121.09C55.113,-120.062 53.656,-119.025 52.197,-117.991C52.261,-117.801 52.323,-117.61 52.387,-117.419C58.912,-117.282 65.438,-117.144 71.978,-117.005C72.757,-115.298 73.091,-113.692 72.48,-112.015C71.962,-110.592 71.4,-109.183 70.79,-107.796C70.013,-106.027 69.136,-104.325 66.696,-104.613C66.523,-102.832 66.363,-101.246 66.217,-99.659C65.623,-93.185 63.861,-87.084 60.209,-81.649C56.211,-75.698 50.379,-73.517 43.437,-73.835C41.283,-73.935 39.592,-74.992 38.517,-76.823C37.837,-77.979 37.274,-79.258 36.939,-80.555C35.766,-85.099 35.697,-89.726 36.198,-94.372C36.28,-95.138 36.403,-95.901 36.587,-97.25C35.779,-96.376 35.322,-95.97 34.97,-95.487C31.436,-90.643 27.808,-85.86 24.424,-80.912C20.001,-74.444 15.768,-67.846 11.466,-61.294C9.447,-58.219 7.362,-55.182 5.486,-52.02C3.252,-48.255 4.069,-46.492 8.307,-45.557C9.943,-45.196 11.604,-44.909 13.268,-44.703C22.868,-43.517 32.472,-42.353 42.078,-41.205C60.816,-38.967 79.562,-36.809 98.4,-35.549C101.123,-35.367 103.79,-34.804 106.266,-33.581C108.608,-32.424 110.327,-30.688 110.79,-28.037C111.384,-24.638 111.628,-21.211 111.096,-17.768C110.988,-17.071 110.943,-16.364 110.866,-15.627C111.585,-15.721 112.146,-15.794 112.709,-15.868C112.35,-14.975 111.789,-14.453 111.233,-13.925C108.857,-11.669 106.379,-9.509 104.13,-7.132C100.707,-3.515 97.769,0.492 95.739,5.068C95.035,6.654 94.537,8.385 94.28,10.1C94.018,11.845 95.076,12.751 96.764,12.254C98.352,11.787 99.946,11.117 101.332,10.217C106.33,6.971 110.75,3.079 114.153,-1.885C114.639,-2.593 115.15,-3.97 116.25,-3.119C117.153,-2.419 116.109,-1.471 115.603,-0.885C113.317,1.751 112.245,4.94 111.541,8.22C111.062,10.453 110.911,12.812 111.009,15.097C111.086,16.895 112.327,17.358 113.902,16.447C114.585,16.052 115.242,15.542 115.762,14.953C117.08,13.455 118.368,11.922 119.565,10.327C120.62,8.923 121.513,7.398 122.523,5.958C123.007,5.268 123.457,4.353 124.861,5.108C124.861,5.756 124.831,6.538 124.868,7.317C124.929,8.59 124.958,9.872 125.14,11.13C125.307,12.292 125.418,13.778 126.927,13.867C128.254,13.946 128.754,12.581 129.023,11.554C129.668,9.094 130.122,6.581 130.59,4.078C130.765,3.14 130.762,2.168 130.844,1.212C130.925,0.276 131.012,-0.66 131.096,-1.596C132.356,2.375 132.635,6.321 131.45,10.255C131.086,11.466 130.558,12.657 129.919,13.749C129.209,14.962 128.153,15.903 126.599,15.674C125.166,15.463 124.409,14.369 124.017,13.105C123.687,12.048 123.584,10.92 123.384,9.824C123.296,9.344 123.218,8.862 123.071,8.01C122.331,9.081 121.874,9.827 121.334,10.507C119.795,12.445 118.3,14.428 116.627,16.246C115.842,17.098 114.755,17.758 113.686,18.24C112.075,18.965 110.633,18.381 109.934,16.767C109.563,15.915 109.303,14.9 109.379,13.99C109.621,11.078 110.044,8.181 110.378,5.426C107.154,7.44 106.721,7.967 106.637,11.627C106.448,19.847 104.819,27.818 102.679,35.706C100.547,43.559 96.893,50.579 91.176,56.459C89.225,58.466 87.315,60.515 85.434,62.588C81.241,67.207 76.962,71.753 72.935,76.513C68.186,82.126 65.394,88.673 64.17,95.953C63.076,102.464 62.828,108.979 63.206,115.553C64.095,131.032 74.77,144.261 89.757,148.338C100.484,151.256 111.424,151.291 122.394,150.54C124.994,150.361 127.577,149.726 129.781,148.064C129.705,147.349 129.656,146.715 129.569,146.086C128.337,137.181 128.187,128.226 128.498,119.266C128.733,112.474 129.021,105.675 129.604,98.907C130.477,88.791 131.432,78.674 132.711,68.604C134.282,56.235 136.336,43.927 137.963,31.564C138.913,24.35 139.525,17.078 138.707,9.79C138.378,6.854 137.842,3.94 137.436,1.011C137.334,0.283 136.936,-0.538 137.885,-1.329C138.176,-0.883 138.554,-0.554 138.611,-0.177C139.157,3.378 139.798,6.927 140.124,10.504C140.876,18.761 140.012,26.97 138.914,35.137C137.626,44.723 136.067,54.272 134.723,63.851C132.331,80.886 130.67,97.994 129.959,115.185C129.486,126.629 129.46,138.065 131.489,149.393C133.348,159.767 136.587,169.691 141.528,179.027C146.902,189.18 155.692,194.365 166.757,195.898C169.955,196.34 173.302,196.038 176.549,195.739C182.153,195.225 187.568,193.822 192.658,191.363C194.067,190.682 195.354,189.75 196.696,188.932M177.321,109.269C176.676,112.084 176.17,114.51 175.555,116.91C174.886,119.515 173.739,121.896 171.555,123.574C170.863,124.104 170.7,124.679 170.735,125.409C170.926,129.397 171.078,133.389 171.366,137.372C171.478,138.905 172.584,139.41 174.142,138.832C176.612,137.914 179.051,136.903 181.545,136.053C184.127,135.173 186.779,134.591 189.546,134.752C192.646,134.934 194.299,136.689 193.858,139.78C193.614,141.485 192.999,143.197 192.246,144.758C190.424,148.54 187.794,151.767 184.827,154.717C184.213,155.329 183.514,155.856 182.854,156.422C182.937,156.562 183.019,156.702 183.101,156.842C183.582,156.761 184.066,156.694 184.545,156.597C187.596,155.981 190.631,155.28 193.698,154.763C196.258,154.331 198.821,154.597 201.257,155.511C204.907,156.881 206.352,160.035 204.821,163.621C204.145,165.209 203.193,166.808 201.978,168.009C199.772,170.19 197.406,172.26 194.874,174.044C190.606,177.05 185.856,179.185 180.944,180.947C180.052,181.266 179.17,181.62 177.841,182.127C178.903,182.474 179.527,182.74 180.18,182.882C185.172,183.977 190.169,185.046 195.164,186.129C195.787,186.264 196.427,186.37 197.018,186.596C198.975,187.344 199.406,188.784 197.911,190.283C196.745,191.451 195.331,192.445 193.876,193.238C189.479,195.635 184.731,197.151 179.774,197.662C175.338,198.12 170.848,198.215 166.384,198.181C164.778,198.169 163.103,197.485 161.595,196.807C158.244,195.299 154.955,193.651 151.688,191.967C148.577,190.364 146.133,187.947 143.953,185.248C143.457,184.634 142.976,184.008 142.454,183.344C141.845,185.092 135.282,290.966 135.419,296.752C137.615,297.157 139.866,297.601 142.127,297.984C155.529,300.251 168.937,302.481 182.335,304.779C185.089,305.251 187.803,305.961 190.534,306.565C190.769,306.616 191.02,306.644 191.229,306.75C192.089,307.185 193.612,307.096 193.378,308.514C193.187,309.668 191.888,309.554 190.966,309.548C185.528,309.513 180.083,309.591 174.654,309.325C159.156,308.563 143.665,307.65 128.171,306.809C127.157,306.754 126.139,306.802 124.789,306.802C124.64,297.878 125.194,289.202 125.414,280.524C125.634,271.807 125.978,263.094 126.28,254.379C126.583,245.666 126.9,236.952 127.214,228.238C127.524,219.604 127.838,210.97 128.15,202.336C128.466,193.623 128.784,184.91 129.094,176.195C129.403,167.489 129.704,158.782 130.02,149.738C123.738,152.853 117.094,151.999 110.408,152.385C110.408,153.34 110.348,154.192 110.418,155.032C111.41,166.908 112.417,178.782 113.427,190.656C114.309,201.015 115.196,211.375 116.084,221.734C117.326,236.237 118.561,250.74 119.816,265.242C120.817,276.795 121.829,288.348 122.879,299.897C123.03,301.555 123.392,303.198 123.724,304.834C123.982,306.107 123.732,306.61 122.444,306.864C121.899,306.97 121.33,306.98 120.771,306.978C101.015,306.893 81.258,306.817 61.501,306.689C59.51,306.676 57.51,306.419 55.535,306.131C54.763,306.019 54.047,305.511 53.273,305.169C53.779,303.651 54.844,303.44 55.841,303.254C59.298,302.614 62.747,301.868 66.233,301.457C80.768,299.745 95.314,298.14 109.855,296.494C110.887,296.376 111.914,296.235 112.924,296.107C113.311,293.987 98.082,154.07 97.187,151.424C94.641,150.85 92.068,150.302 89.511,149.689C77.26,146.75 62.04,133.55 61.775,115.042C61.662,107.164 61.834,99.376 63.679,91.69C63.713,91.549 63.649,91.384 63.598,90.95C62.764,91.109 61.937,91.257 61.112,91.426C47.719,94.165 34.703,93.223 22.227,87.338C20.354,86.456 18.555,85.382 16.83,84.234C14.252,82.516 12.286,80.225 11.026,77.358C10.679,76.567 10.253,75.811 9.643,74.605C7.96,79.923 6.411,84.818 4.787,89.947C0.946,88.507 -1.003,85.201 -3.634,82.396C-3.84,83.54 -3.946,84.464 -4.181,85.356C-4.529,86.678 -4.9,88.061 -6.567,88.303C-7.84,88.487 -9.764,87.254 -10.423,85.868C-10.688,85.311 -10.846,84.704 -11.465,84.125C-11.497,85.097 -11.559,86.07 -11.555,87.043C-11.546,89.682 -11.38,92.329 -11.529,94.958C-11.627,96.689 -12.078,98.418 -12.537,100.104C-12.759,100.921 -13.253,101.728 -13.813,102.376C-15.416,104.24 -17.668,104.014 -18.615,101.763C-19.252,100.251 -19.632,98.532 -19.683,96.891C-19.776,93.862 -19.5,90.823 -19.462,87.787C-19.427,84.997 -19.415,82.201 -19.557,79.416C-19.685,76.908 -20.541,74.573 -21.767,72.379C-22.679,70.747 -23.398,69.01 -23.095,67.126C-22.888,65.841 -22.292,64.619 -21.771,63.078C-24.35,62.033 -26.792,60.558 -27.793,57.609C-28.755,54.774 -28.297,52.101 -26.655,49.547C-27.255,49 -27.804,48.551 -28.291,48.045C-30.396,45.859 -31.152,43.196 -30.491,40.304C-29.979,38.064 -29.155,35.875 -28.252,33.755C-27.689,32.436 -27.463,31.271 -27.9,29.868C-28.493,27.967 -28.813,25.982 -29.355,24.063C-29.938,21.998 -29.315,20.35 -27.564,19.322C-25.37,18.032 -23.128,16.678 -20.727,15.919C-17.317,14.841 -13.762,14.188 -10.236,13.525C-7.177,12.951 -4.074,12.597 -0.986,12.179C2.94,11.647 6.828,11.766 10.646,12.954C12.422,13.506 14.083,14.221 15.401,15.613C15.749,15.981 16.313,16.199 16.819,16.354C18.867,16.981 18.9,16.999 18.679,19.212C18.472,21.28 18.252,23.347 18.051,25.415C18.037,25.555 18.138,25.706 18.237,26.01C19.195,26.01 20.216,25.953 21.229,26.023C22.74,26.127 24.277,26.181 25.746,26.509C28.013,27.016 28.966,28.388 28.79,30.688C28.718,31.631 28.502,32.595 28.168,33.48C26.833,37.015 26.831,40.529 28.275,44.007C29.347,46.586 30.462,49.154 31.686,51.664C33.229,54.83 35.771,56.92 39.068,58.146C45.437,60.512 51.903,60.722 58.39,58.844C76.623,53.563 90.548,42.744 99.752,26.089C101.319,23.252 102.298,20.069 103.365,16.983C104.133,14.763 104.597,12.438 105.299,9.767C104.08,10.533 103.176,11.13 102.244,11.68C100.453,12.736 98.664,13.822 96.507,13.955C93.92,14.114 92.39,12.865 92.674,10.301C92.906,8.202 93.522,6.055 94.416,4.137C97.472,-2.42 102.08,-7.832 107.544,-12.499C108.809,-13.578 109.327,-14.689 109.55,-16.294C110.05,-19.894 110.086,-23.449 109.59,-27.046C109.237,-29.603 107.93,-31.454 105.618,-32.323C103.398,-33.158 101.047,-33.853 98.699,-34.097C91.304,-34.868 83.874,-35.311 76.474,-36.045C66.847,-37 57.231,-38.084 47.616,-39.167C38.718,-40.169 29.822,-41.204 20.934,-42.3C16.81,-42.809 12.708,-43.498 8.597,-44.106C8.28,-44.153 7.962,-44.198 7.651,-44.273C3.016,-45.386 1.829,-47.998 4.039,-52.25C4.371,-52.888 4.757,-53.499 5.151,-54.1C11.34,-63.527 17.425,-73.024 23.767,-82.347C27.677,-88.095 31.938,-93.607 36.137,-99.154C37.318,-100.715 38.944,-101.958 39.032,-104.357C37.861,-104.434 36.682,-104.502 35.502,-104.59C34.403,-104.671 33.341,-104.504 33.242,-106.297C33.198,-107.092 32.185,-107.921 32.146,-109.035C32.117,-109.897 32.145,-110.665 32.956,-111.117C33.927,-111.658 33.608,-112.421 33.429,-113.225C32.33,-113.581 30.846,-113.64 30.989,-115.287C31.135,-116.959 32.634,-116.846 33.768,-116.917C38.395,-117.209 43.027,-117.451 47.661,-117.616C48.852,-117.659 49.783,-118.004 50.718,-118.716C53.034,-120.48 55.421,-122.15 57.72,-123.815C54.412,-123.154 50.993,-122.403 47.549,-121.797C38.878,-120.272 30.145,-119.233 21.35,-118.784C17.029,-118.563 12.706,-118.694 8.446,-119.556C2.482,-120.762 0.729,-124.138 3.184,-129.701C6.514,-137.247 12.039,-142.73 19.271,-146.552C25.248,-149.709 31.676,-151.676 38.149,-153.475C46.164,-155.703 54.245,-157.663 62.525,-158.634C66.737,-159.129 70.961,-159.501 75.21,-159.043C75.917,-158.967 76.64,-159.032 77.458,-159.312C76.697,-159.543 75.942,-159.797 75.175,-160.003C61.809,-163.587 48.258,-166.337 34.688,-169.017C19.021,-172.11 3.845,-176.747 -10.646,-183.538C-18.465,-187.201 -26.34,-190.746 -34.173,-194.376C-35.474,-194.979 -36.734,-195.691 -37.946,-196.458C-40.287,-197.94 -41.642,-200.106 -42.372,-202.779C-43.35,-206.358 -42.387,-209.338 -39.609,-211.59C-37.7,-213.138 -35.556,-214.457 -33.365,-215.584C-26.705,-219.014 -19.571,-221.093 -12.238,-222.488C-0.038,-224.809 12.24,-226.604 24.698,-225.962C45.131,-224.91 64.511,-219.968 82.154,-209.304C93.232,-202.608 102.496,-193.81 110.4,-183.603C115.743,-176.703 119.425,-168.928 122.019,-160.6C123.982,-154.293 124.639,-148.08 121.455,-141.903C126.273,-137.917 126.966,-131.891 129.435,-126.599C130.092,-126.467 130.847,-126.316 131.731,-126.139C133.044,-121.95 134.406,-117.779 135.645,-113.57C136.278,-111.416 135.71,-110.693 132.968,-109.824C133.271,-107.587 133.559,-105.307 133.895,-103.033C135.524,-92.041 136.654,-80.943 138.935,-70.088C141.809,-56.41 145.522,-42.903 149.062,-29.372C153.473,-12.515 158.233,4.251 162.549,21.131C166.924,38.241 170.94,55.442 175.116,72.602C175.189,72.905 175.289,73.201 175.721,73.537C175.835,72.979 176.004,72.427 176.055,71.865C179.222,36.949 191.054,5.472 213.308,-21.845C219.185,-29.059 225.652,-35.717 233.084,-41.351C235.746,-43.369 238.654,-45.087 241.563,-46.745C242.773,-47.435 244.255,-47.805 245.654,-47.969C247.881,-48.231 249.42,-46.978 249.575,-44.735C249.694,-43.005 249.708,-41.15 249.216,-39.518C247.789,-34.782 246.323,-30.033 244.444,-25.465C238.267,-10.447 231.005,4.075 223.749,18.589C213.776,38.54 203.638,58.409 193.572,78.313C193.158,79.132 192.769,79.963 192.367,80.789C192.506,80.859 192.646,80.929 192.785,81C193.252,80.297 193.735,79.604 194.185,78.89C205.455,60.966 218.064,44.065 232.673,28.707C242.801,18.059 253.864,8.518 266.41,0.785C271.388,-2.284 276.505,-5.105 282.098,-6.895C284.287,-7.595 286.588,-7.991 288.866,-8.356C289.862,-8.516 290.95,-8.366 291.955,-8.157C294.196,-7.689 295.726,-6.118 295.721,-3.819C295.717,-1.946 295.514,0.099 294.74,1.761C293.129,5.222 291.295,8.625 289.17,11.794C284.255,19.122 278.37,25.681 272.271,32.032C252.981,52.112 231.623,69.8 209.312,86.385C208.628,86.894 207.959,87.423 207.437,88.251C208.149,87.972 208.871,87.711 209.575,87.411C225.779,80.469 242.408,74.829 259.696,71.279C263.676,70.461 267.745,70.033 271.792,69.612C273.267,69.458 274.845,69.664 276.295,70.027C278.846,70.668 279.388,72.421 277.73,74.511C276.945,75.502 276.013,76.451 274.965,77.145C271.902,79.172 268.843,81.239 265.613,82.973C255.377,88.473 244.572,92.674 233.657,96.598C221.086,101.116 208.339,105.038 195.229,107.692C190.359,108.678 185.442,109.237 180.47,109.268C179.442,109.275 178.414,109.269 177.321,109.269" style="fill-rule:nonzero;"/>
        </g>
        <g transform="matrix(1,0,0,1,77.4834,116.659)">
            <path d="M0,-6.286C0.895,-4.173 1.774,-2.096 2.819,0.371C3.099,0.446 3.852,0.634 4.597,0.853C5.208,1.032 5.874,1.141 6.404,1.464C8.53,2.757 10.241,4.684 12.725,5.464C13.202,5.613 13.547,6.408 13.81,6.972C14.764,9.02 15.862,9.456 17.874,8.583C18.896,8.139 19.948,7.75 21.015,7.43C22.064,7.115 22.931,7.468 23.385,8.5C23.781,9.402 23.185,10.433 22.015,10.941C21.651,11.098 21.256,11.216 20.864,11.263C18.848,11.507 17.337,12.419 16.161,14.153C15.524,15.092 14.432,15.774 13.438,16.405C12.563,16.962 11.566,16.896 10.812,16.071C10.039,15.228 10.206,14.313 10.799,13.439C11.05,13.069 11.345,12.731 11.75,12.211C9.816,13.164 8.169,14.091 6.433,14.801C4.493,15.594 2.536,15.789 1.062,13.94C-0.447,14.332 -1.82,14.759 -3.224,15.027C-4.153,15.205 -5.141,15.286 -6.077,15.18C-8.734,14.881 -9.707,12.574 -8.288,10.71C-8.005,10.339 -7.804,9.895 -7.626,9.46C-7.546,9.262 -7.613,9.005 -7.613,8.58C-8.188,8.664 -8.719,8.683 -9.215,8.823C-11.287,9.409 -13.333,10.095 -15.419,10.623C-17.525,11.156 -19.646,11.345 -21.796,10.631C-22.422,10.422 -23.2,10.644 -23.905,10.704C-27.082,10.974 -30.252,11.326 -33.434,11.496C-34.431,11.549 -35.521,11.284 -36.45,10.887C-38.529,10 -38.988,7.996 -37.654,6.149C-36.918,5.129 -36.153,4.13 -35.594,3.381C-35.724,3.381 -36.417,3.31 -37.092,3.392C-42.43,4.037 -47.762,4.024 -53.115,3.515C-54.764,3.359 -56.455,3.689 -58.128,3.736C-61.251,3.825 -64.37,3.76 -67.399,2.886C-68.387,2.601 -69.39,2.24 -70.263,1.711C-72.568,0.314 -73.178,-1.994 -71.733,-4.252C-70.973,-5.442 -69.959,-6.545 -68.849,-7.418C-67.159,-8.745 -65.365,-9.988 -63.475,-11.006C-54.28,-15.957 -44.727,-20.026 -34.278,-21.37C-26.359,-22.39 -18.394,-23.248 -10.417,-21.703C-7.888,-21.214 -5.486,-20.425 -3.228,-19.144C-2.437,-18.696 -1.449,-18.573 -0.537,-18.36C1.476,-17.892 3.597,-17.711 5.495,-16.961C9.024,-15.567 9.496,-12.424 6.495,-10.11C4.562,-8.619 2.267,-7.596 0,-6.286" style="fill-rule:nonzero;"/>
        </g>
        <g transform="matrix(1,0,0,1,64.0835,533.313)">
            <path d="M0,-19.164C1.669,-18.262 2.987,-18.287 4.233,-19.204C5.316,-20.001 5.652,-21.418 5.042,-22.621C4.532,-23.629 3.477,-23.997 2.673,-23.245C1.47,-22.118 0.271,-20.917 0,-19.164M18.877,-20.15C19.549,-20.09 20.103,-19.992 20.655,-20.001C21.419,-20.014 22.371,-19.825 22.644,-20.838C22.944,-21.947 22.272,-22.661 21.333,-23.085C19.724,-23.813 18.056,-23.837 16.524,-22.972C16.025,-22.69 15.569,-21.882 15.572,-21.317C15.574,-20.926 16.341,-20.353 16.866,-20.197C17.522,-20.002 18.28,-20.15 18.877,-20.15M6.696,-11.261C10.117,-10.18 14.161,-11.093 15.726,-13.207C13.243,-15.299 9.649,-14.575 6.696,-11.261M-13.953,-9.288C-13.911,-9.383 -13.869,-9.476 -13.827,-9.571C-13.51,-9.571 -13.191,-9.551 -12.876,-9.575C-11.18,-9.707 -10.251,-10.748 -10.372,-12.368C-10.476,-13.771 -11.289,-14.425 -13.057,-14.322C-13.724,-14.284 -14.492,-14.069 -15.004,-13.668C-15.974,-12.907 -17.343,-11.982 -16.726,-10.645C-16.392,-9.921 -14.915,-9.724 -13.953,-9.288M-29.765,-5.195C-32.824,-4.896 -35.677,-4.633 -38.527,-4.336C-41.226,-4.055 -43.951,-3.895 -46.611,-3.399C-50.141,-2.74 -53.63,-1.851 -57.114,-0.973C-59.004,-0.496 -60.716,0.38 -61.873,2.05C-63.137,3.873 -62.832,5.411 -60.872,6.412C-59.747,6.987 -58.511,7.419 -57.276,7.69C-51.852,8.885 -46.343,9.02 -40.817,8.823C-37.861,8.718 -34.903,8.631 -31.949,8.491C-27,8.259 -22.053,7.957 -17.103,7.748C-14.07,7.62 -11.032,7.607 -7.996,7.558C-7.519,7.55 -7.028,7.57 -6.564,7.675C-4.896,8.051 -4.539,8.955 -5.464,10.416C-6.046,11.335 -6.861,12.162 -6.657,13.474C-6.224,13.607 -5.856,13.728 -5.485,13.835C-1.898,14.869 1.794,14.631 5.461,14.813C9.676,15.022 13.725,14.317 17.755,13.227C22.995,11.808 28.244,10.424 33.501,9.076C34.655,8.781 35.858,8.598 37.047,8.539C44.569,8.164 51.978,6.949 59.357,5.54C60.824,5.26 62.267,4.67 63.615,4.006C64.855,3.395 64.94,2.733 64.437,1.408C63.882,-0.053 62.713,-0.893 61.384,-1.483C58.393,-2.814 55.424,-4.239 52.333,-5.29C49.465,-6.265 46.402,-6.311 43.425,-6.441C42.594,-3.779 40.718,-2.733 38.388,-2.268C36.534,-1.897 34.729,-2.131 32.965,-2.763C28.534,-4.351 24.196,-4.715 19.734,-2.587C17.234,-1.393 14.499,-0.533 11.776,-0.012C8.662,0.584 5.429,0.98 2.275,0.837C-1.443,0.669 -5.126,-0.206 -8.835,-0.692C-10.007,-0.846 -11.222,-0.833 -12.401,-0.725C-16.222,-0.375 -20.021,0.051 -23.878,-0.431C-26.891,-0.807 -29.005,-2.075 -29.765,-5.195M-27.133,-8.878C-27.766,-9.379 -28.336,-9.8 -28.871,-10.262C-30.304,-11.501 -30.723,-12.699 -29.804,-14.282C-27.035,-19.052 -23.475,-22.781 -17.367,-22.563C-15.133,-22.484 -12.904,-22.269 -10.672,-22.127C-9.955,-22.081 -9.234,-22.02 -8.517,-22.044C-6.022,-22.125 -5.253,-22.725 -4.802,-25.207C-4.363,-27.623 -3.399,-29.743 -1.921,-31.704C0.509,-34.928 3.712,-36.022 7.582,-35.383C11.645,-34.71 15.395,-33.396 18.759,-30.816C21.143,-28.987 23.939,-27.778 27.209,-28.361C29.888,-28.839 32.45,-28.258 34.808,-26.851C36.44,-25.877 37.732,-24.583 38.382,-22.791C39.907,-18.59 41.371,-14.366 42.833,-10.143C43.067,-9.47 43.171,-8.752 43.375,-7.886C44.814,-7.707 46.301,-7.397 47.796,-7.361C50.483,-7.298 53.006,-6.674 55.448,-5.597C57.566,-4.662 59.771,-3.895 61.806,-2.808C63.18,-2.072 64.557,-1.094 65.522,0.106C67.336,2.36 66.799,4.595 64.184,5.769C62.387,6.576 60.426,7.148 58.48,7.465C51.227,8.644 43.958,9.727 36.601,10.078C35.259,10.142 33.911,10.45 32.602,10.787C25.876,12.517 19.172,14.333 12.438,16.024C10.75,16.448 8.973,16.728 7.24,16.714C2.938,16.681 -1.379,16.858 -5.631,15.796C-8.86,14.989 -9.558,13.491 -7.723,10.674C-7.43,10.226 -7.12,9.788 -6.56,8.968C-9.054,8.856 -11.181,8.596 -13.291,8.695C-21.909,9.101 -30.523,9.589 -39.136,10.101C-44.5,10.42 -49.855,10.365 -55.154,9.5C-57.333,9.145 -59.531,8.501 -61.533,7.581C-64.313,6.304 -64.812,3.737 -63.071,1.203C-61.99,-0.37 -60.495,-1.468 -58.692,-1.986C-52.86,-3.666 -47.004,-5.249 -40.923,-5.785C-37.346,-6.101 -33.773,-6.48 -30.197,-6.814C-28.923,-6.933 -27.908,-7.426 -27.133,-8.878" style="fill-rule:nonzero;"/>
        </g>
        <g transform="matrix(1,0,0,1,157.13,154.896)">
            <path d="M0,15.032C0.081,15.18 0.163,15.327 0.245,15.475C4.952,14.272 9.664,13.087 14.365,11.864C33.113,6.987 52.107,4.187 71.539,4.936C74.733,5.06 77.938,4.962 81.136,4.949C81.929,4.946 82.722,4.875 83.514,4.835C51.165,3.591 18.834,2.763 -13.519,2.594C-13.151,2.877 -12.773,2.937 -12.394,2.968C-6.177,3.467 0.042,3.947 6.256,4.473C7.229,4.555 8.184,4.845 9.147,5.04C9.247,5.27 9.347,5.5 9.447,5.729C6.214,8.754 3.177,11.957 0,15.032M87.921,3.397C88.131,4.4 87.815,5.195 86.814,5.48C85.524,5.848 84.2,6.286 82.882,6.321C78.966,6.425 75.041,6.471 71.129,6.318C51.775,5.557 32.88,8.431 14.222,13.303C8.732,14.736 3.228,16.106 -2.273,17.49C-3.011,17.675 -3.772,17.767 -4.664,17.653C-3.936,15.826 -2.026,15.318 -0.884,14.012C0.272,12.693 1.596,11.52 2.86,10.297C4.174,9.025 5.504,7.771 7.133,6.219C5.025,5.59 3.312,5.569 1.625,5.424C-4.188,4.924 -10.008,4.486 -15.815,3.931C-17.063,3.812 -18.294,3.359 -19.496,2.954C-20.189,2.721 -20.806,2.273 -20.324,1.045C-6.168,0.82 8.092,1.459 22.456,1.581C22.54,0.747 22.52,0.036 22.697,-0.621C22.993,-1.714 23.788,-2.437 24.895,-2.581C26.08,-2.735 26.865,-1.998 27.296,-0.967C27.628,-0.173 27.813,0.682 28.122,1.703C31.35,1.798 34.612,1.897 37.876,1.988C54.021,2.441 70.166,2.892 86.311,3.347C86.869,3.363 87.427,3.422 87.985,3.461L87.921,3.397Z" style="fill-rule:nonzero;"/>
        </g>
        <g transform="matrix(1,0,0,1,245.115,167.205)">
            <path d="M0,-8.848C-0.745,-10.082 -2.348,-10.778 -2.431,-12.995C-0.101,-10.988 2.078,-9.402 3.899,-7.478C7.019,-4.182 6.462,-0.695 2.594,1.717C0.51,3.016 -1.671,4.147 -4.427,3.273C-3.468,2.794 -2.503,2.325 -1.551,1.832C-0.279,1.173 1.068,0.616 2.23,-0.201C4.477,-1.778 4.778,-3.564 3.127,-5.71C2.216,-6.894 1.008,-7.851 -0.065,-8.911C-0.064,-8.912 0,-8.848 0,-8.848" style="fill-rule:nonzero;"/>
        </g>
        <g transform="matrix(1,0,0,1,178.657,184.027)">
            <path d="M0,-7.548C0.638,-7.167 0.902,-7.095 1.026,-6.923C3.684,-3.226 7.622,-2.427 11.78,-2.224C14.002,-2.115 16.234,-2.205 18.486,-1.988C16.887,-0.748 14.957,-0.779 13.152,-0.469C10.426,0 7.746,-0.411 5.19,-1.45C2.617,-2.496 0.942,-4.372 0,-7.548" style="fill-rule:nonzero;"/>
        </g>
        <g transform="matrix(1,0,0,1,198.927,154.305)">
            <path d="M0,-5.123C2.599,-3.336 4.93,-1.734 7.452,0C3.448,-0.033 0.778,-1.853 0,-5.123" style="fill-rule:nonzero;"/>
        </g>
        <g transform="matrix(1,0,0,1,150.388,146.427)">
            <path d="M0,6.524C-3.999,6.259 -5.652,4.144 -5.037,0C-4.351,1.483 -3.969,2.844 -3.169,3.883C-2.396,4.888 -1.191,5.562 0,6.524" style="fill-rule:nonzero;"/>
        </g>
    </g>
</svg>
