<?xml version="1.0" encoding="UTF-8" standalone="no"?><!DOCTYPE svg PUBLIC "-//W3C//DTD SVG 1.1//EN" "http://www.w3.org/Graphics/SVG/1.1/DTD/svg11.dtd"><svg width="100%" height="100%" viewBox="0 0 232 73" version="1.1" xmlns="http://www.w3.org/2000/svg" xmlns:xlink="http://www.w3.org/1999/xlink" xml:space="preserve" xmlns:serif="http://www.serif.com/" style="fill-rule:evenodd;clip-rule:evenodd;stroke-linejoin:round;stroke-miterlimit:2;"><path d="M38.754,36.051c0,2.24 0.834,4.059 1.862,4.059c1.027,-0 1.861,-1.819 1.861,-4.059c0,-2.239 -0.834,-4.058 -1.861,-4.058c-1.028,-0 -1.862,1.819 -1.862,4.058Z" style="fill:url(#_Linear1);"/><path d="M0,32.515c0,12.145 6.733,22.726 16.701,28.31l2.267,-37.251c0,-0 -1.289,-14.055 5.246,-17.288c5.959,-2.948 0.69,10.994 -0.287,13.478c0.531,-1.281 2.512,-5.592 6.064,-7.935c4.201,-2.771 -0.752,6.664 -2.619,9.898c2.749,0.68 18.087,-1.519 18.867,15.447l7.649,4.214l-7.472,3.028c0.245,6.5 0.79,12.423 1.334,17.078c2.974,-1.5 5.689,-3.427 8.055,-5.711l13.094,1.935l-6.07,-11.868c1.853,-4.069 2.893,-8.58 2.893,-13.335c0,-17.958 -14.714,-32.515 -32.861,-32.515c-18.149,-0 -32.861,14.557 -32.861,32.515Z" style="fill:url(#_Linear2);fill-rule:nonzero;"/><path d="M103.449,5.671c-1.08,-0.389 -2.75,-0.777 -3.142,-0.972c-4.419,-2.235 -7.856,0 -15.907,4.179c-0.884,0.485 -1.571,1.263 -2.259,2.04c-0.392,0.485 -0.785,1.069 -0.982,1.651c-0.098,0.487 -0.098,0.875 0.197,1.264c0.491,0.68 0.785,1.457 1.178,2.234c0.099,0.487 -0.196,0.973 -0.589,0.973c-0.786,-0.098 -1.374,-0.292 -2.062,-0.389l-0.392,-0.292c-1.179,-1.458 -1.964,-3.206 -1.572,-5.149c0.197,-1.166 0.884,-2.139 1.768,-3.013c1.571,-1.651 3.534,-2.817 5.498,-4.081c2.848,-1.652 5.892,-2.623 9.034,-3.303c1.276,-0.292 2.553,-0.389 3.829,-0.486c2.357,-0.388 4.615,0.194 6.874,0.874c1.472,0.389 2.749,1.07 4.026,1.847c0.49,0.291 1.08,0.777 1.57,1.166l2.652,2.429c0.982,0.971 1.865,1.943 2.651,3.109c0.589,0.972 0.883,1.943 1.08,3.013l0.393,4.372c-0,0.777 -0.098,1.554 -0.295,2.429l-0.098,0.388c-0,1.166 -0.098,1.847 -0.687,2.624l-0.197,1.07c-0.393,1.262 -0.883,2.525 -1.571,3.691c-0.196,0.486 -0.589,0.875 -0.687,1.458c-0.589,0.583 -1.081,1.166 -1.669,1.651c-0.393,0.196 -0.786,0.389 -1.08,0.681c-0.197,0.097 -0.492,0.194 -0.59,0.389c-0.491,0.777 -1.374,1.166 -2.062,1.651l-0.687,0.486c-0.785,0.875 -1.669,1.555 -2.749,2.041c0.196,0.194 0.294,0.486 0.392,0.778c0.393,0.291 0.982,0.679 1.375,1.166c1.669,2.817 1.669,3.4 2.946,6.996c10.015,25.943 7.462,41.392 -5.793,3.498c-0.884,-2.43 -1.866,-4.86 -2.848,-7.288c-0.196,-0.389 -0.393,-0.874 -0.687,-1.263c-0.295,-0.486 -0.786,-0.584 -1.179,-0.195l-2.356,2.041c-0.197,0.194 -0.491,0.486 -0.786,0.583c-1.178,0.68 -2.454,1.262 -3.829,1.943c-0.196,0.777 -0.491,1.652 -0.589,2.527c-0.295,2.72 -0.687,5.343 -0.687,8.064l-0,0.973c-0.393,1.845 -0.197,3.789 -0.295,5.634c-0.197,1.75 0.295,3.402 0.196,5.053c-0.098,0.389 -0,0.681 -0.294,0.973c-0.197,0.193 -0.099,0.485 -0.099,0.777l0.492,3.303l-0,0.389c-0,0.68 -0.197,1.166 -0.884,1.263c-0.884,0.098 -1.67,0.195 -2.553,-0.194c-1.964,-0.874 -3.437,-2.235 -4.517,-3.984c-0.393,-0.68 -0.589,-1.652 -0.687,-2.527c-0.197,-1.068 -0.197,-2.234 -0.295,-3.4c-0.098,-1.457 -0.196,-2.915 -0.196,-4.373l0.196,-6.51c0.196,-2.721 0.393,-5.441 0.786,-8.065c0.294,-3.012 0.687,-5.927 1.276,-8.842c0.295,-1.166 0.393,-2.429 0.589,-3.595c0.589,-3.887 1.277,-7.677 2.062,-11.564c0.393,-2.137 1.081,-4.178 1.669,-6.218c0.197,-0.681 0.59,-0.972 1.277,-0.972c0.295,0 0.589,0.098 0.982,0.098l1.571,0.582c0.884,0.292 1.473,0.972 2.16,1.554c1.571,1.362 2.062,3.11 1.571,5.151c-0.393,1.555 -0.687,3.012 -0.884,4.566c-0.098,2.139 -0.589,4.276 -1.178,6.414c-0.196,0.971 -0.393,1.944 -0.393,2.914c-0,1.264 -0.294,2.624 -0.392,3.887c-0,0.486 -0,0.875 -0.098,1.361c0.49,0.194 0.883,-0.097 1.276,-0.292c2.062,-0.68 3.829,-1.846 5.499,-3.109c2.062,-1.458 4.025,-3.109 5.596,-5.053c-0,0 0.098,-0.096 0.098,-0.194c-0,0 0.099,0 0.099,-0.098c2.258,-4.275 3.142,-21.085 -1.473,-23.902c-0.295,-0.292 -0.491,-0.584 -0.589,-0.875" style="fill:#231f20;fill-rule:nonzero;"/><path d="M131.238,50.369l0.294,0.68l3.339,-4.178c-0.196,-0.972 0.786,-1.166 0.982,-1.749l0.688,-1.651c0.392,-1.458 0.884,-2.916 1.472,-4.276c0.393,-1.264 0.884,-2.332 1.375,-3.498c0.294,-0.681 0.491,-1.166 0.884,-1.75c0.49,-0.68 0.589,-1.555 0.883,-2.332c0.197,-0.68 0.197,-1.359 0.394,-2.04c0.097,-0.292 0.196,-0.485 -0,-0.777c-0,-0.097 -0,-0.389 0.097,-0.389c0.589,-0.777 0.393,-1.651 0.393,-2.429c-0,-0.68 0.295,-1.069 0.884,-1.458c1.08,-0.971 2.16,-0.777 3.338,-0.485c0.197,0.097 0.492,0.389 0.492,0.68c0.294,1.263 0.589,2.623 0.589,3.984c0.097,1.457 -0.197,3.012 -0.295,4.566c-0,1.069 -0.098,2.138 -0.197,3.207c-0,2.137 -0.196,4.373 -0.097,6.51c0.097,2.235 -0.099,4.47 0.392,6.705c0.098,0.389 -0,0.68 -0,1.069c-0,0.194 -0,0.388 0.098,0.583c0.59,1.166 0.491,2.428 0.884,3.594c0.196,0.487 -0,0.875 -0.294,1.264l-0.688,-0l-1.276,0.194c-1.179,0.292 -1.964,-0.388 -2.16,-1.262l-0.394,-1.75l-0.294,-4.08l-0.295,-2.332c-0.392,-2.236 -0.589,-4.471 -0.687,-6.803c-0,-0.193 -0.197,-0.485 -0.294,-0.874c-0.295,0.194 -0.59,0.292 -0.59,0.485c-0.49,1.458 -0.883,2.916 -1.276,4.373c-0.197,1.069 -0.589,2.041 -0.982,3.012c-0.589,1.555 -1.375,3.013 -1.767,4.567c-0.197,0.778 -0.589,1.458 -0.982,2.138c-0.687,0.972 -1.08,2.041 -1.67,3.109c-0.294,0.098 -0.687,0.098 -0.981,0.291c-0.393,0.098 -0.884,0.098 -1.277,-0c-1.08,-0.291 -2.16,-0.777 -3.044,-1.359c-0.688,-0.389 -1.276,-0.875 -1.866,-1.166c-1.08,-0.681 -1.767,-1.555 -2.16,-2.527c-0.687,-1.263 -0.982,-2.623 -1.276,-3.887c-0.197,-0.874 -0.393,-1.748 -0.688,-2.525c-0.785,-2.041 -0.982,-4.082 -1.178,-6.219c-0,-0.389 -0.393,-0.778 -0.196,-1.264c0.196,-0.389 -0,-0.875 -0,-1.36l-0,-1.361c0.196,-1.263 0.098,-2.429 0.196,-3.595c-0,-0.778 -0.098,-1.457 -0.098,-2.137c-0,-2.43 0.294,-7.677 4.418,-4.956c6.678,3.401 1.964,16.032 4.91,25.458" style="fill:#231f20;fill-rule:nonzero;"/><path d="M158.829,50.369l0.294,0.68l3.339,-4.178c-0.196,-0.972 0.785,-1.166 0.981,-1.749l0.688,-1.651c0.392,-1.458 0.884,-2.916 1.472,-4.276c0.394,-1.264 0.884,-2.332 1.375,-3.498c0.295,-0.681 0.492,-1.166 0.884,-1.75c0.491,-0.68 0.589,-1.555 0.884,-2.332c0.196,-0.68 0.196,-1.359 0.393,-2.04c0.098,-0.292 0.196,-0.485 0,-0.777c0,-0.097 0,-0.389 0.098,-0.389c0.589,-0.777 0.393,-1.651 0.393,-2.429c0,-0.68 0.294,-1.069 0.884,-1.458c1.08,-0.971 2.16,-0.777 3.337,-0.485c0.197,0.097 0.492,0.389 0.492,0.68c0.295,1.263 0.589,2.623 0.589,3.984c0.098,1.457 -0.197,3.012 -0.294,4.566c0,1.069 -0.099,2.138 -0.197,3.207c0,2.137 -0.196,4.373 -0.098,6.51c0.098,2.235 -0.098,4.47 0.392,6.705c0.099,0.389 0,0.68 0,1.069c0,0.194 0,0.388 0.099,0.583c0.589,1.166 0.491,2.428 0.884,3.594c0.196,0.487 0,0.875 -0.295,1.264l-0.688,-0l-1.276,0.194c-1.178,0.292 -1.964,-0.388 -2.16,-1.262l-0.393,-1.75l-0.295,-4.08l-0.294,-2.332c-0.393,-2.236 -0.59,-4.471 -0.687,-6.803c0,-0.193 -0.197,-0.485 -0.295,-0.874c-0.294,0.194 -0.589,0.292 -0.589,0.485c-0.491,1.458 -0.884,2.916 -1.276,4.373c-0.197,1.069 -0.589,2.041 -0.983,3.012c-0.589,1.555 -1.374,3.013 -1.766,4.567c-0.198,0.778 -0.59,1.458 -0.983,2.138c-0.687,0.972 -1.08,2.041 -1.669,3.109c-0.295,0.098 -0.687,0.098 -0.982,0.291c-0.393,0.098 -0.884,0.098 -1.277,-0c-1.08,-0.291 -2.16,-0.777 -3.044,-1.359c-0.687,-0.389 -1.276,-0.875 -1.865,-1.166c-1.08,-0.681 -1.767,-1.555 -2.16,-2.527c-0.687,-1.263 -0.982,-2.623 -1.276,-3.887c-0.197,-0.874 -0.394,-1.748 -0.688,-2.525c-0.786,-2.041 -0.982,-4.082 -1.178,-6.219c0,-0.389 -0.393,-0.778 -0.197,-1.264c0.197,-0.389 0,-0.875 0,-1.36l0,-1.361c0.197,-1.263 0.099,-2.429 0.197,-3.595c0,-0.778 -0.098,-1.457 -0.098,-2.137c0,-2.43 0.294,-7.677 4.418,-4.956c6.678,3.401 1.964,16.032 4.91,25.458" style="fill:#231f20;fill-rule:nonzero;"/><path d="M192.704,36.571c0.295,-2.332 0.196,-4.664 0.196,-6.996c0,-0.777 -0.097,-1.651 -0.294,-2.429c0,-0.195 -0.098,-0.388 -0.196,-0.68c-0.687,0.292 -1.08,0.874 -1.768,0.874c-0.098,-0 -0.196,0.097 -0.196,0.097c-0.687,0.875 -1.375,1.653 -2.16,2.235l-0.295,0.292l-0.589,0.68l-0.982,0.874c-0.688,0.972 -1.374,2.04 -2.062,2.915c-1.178,1.457 -1.571,3.207 -1.571,4.955c0,0.875 -0.196,1.555 -0.295,2.332c-0.294,1.362 -0.49,2.624 0.099,3.985c0.196,0.583 0.196,1.166 0.392,1.749c0.099,0.583 0.295,1.069 0.492,1.651c0,0.195 0.196,0.389 0.392,0.584c0.982,-0.292 1.768,-0.68 2.455,-1.458l3.437,-3.595c1.276,-1.263 1.865,-2.916 2.651,-4.373c0.294,-0.583 0.393,-1.263 0.294,-1.943c-0.098,-0.583 -0.098,-1.166 0,-1.749m11.194,-31.871c-0.098,0.681 -0.197,1.263 -0.197,1.943c0.099,0.583 0,1.263 -0.098,1.847c-0.295,1.943 -0.785,3.887 -1.08,5.732c-0.098,0.389 -0.196,0.778 -0.098,1.166c0.196,1.653 0,3.401 -0.294,5.053c-0.393,2.721 -0.59,5.344 -0.688,7.968c-0.196,1.943 -0.392,3.887 -0.687,5.83c-0.099,0.777 -0.295,1.555 -0.491,2.429c-0.098,0.777 -0.197,1.652 -0.393,2.624c0,0.292 -0.098,0.68 -0.196,1.069c-0.295,1.068 -0.393,2.137 -0.393,3.303c0,1.166 0.098,2.332 0,3.401c-0.392,2.138 -0.099,4.276 0,6.316c0,0.68 0.294,1.361 0.294,2.041l0.197,3.789c0,0.777 0.098,1.554 0.197,2.332c0.097,0.68 0.196,1.458 0.686,2.041c0.688,0.679 0.884,1.554 0.884,2.526c-0.785,0.485 -1.767,0.389 -2.65,-0l-0.983,-0.389c0,-0.096 -0.098,-0 -0.196,-0c-1.669,-3.012 -2.945,-6.218 -3.633,-9.424l0.196,-0c0,-0.389 0,-0.875 -0.098,-1.264c-0.197,-0.875 0,-1.749 -0.491,-2.526l-0.295,-4.957c0,-0.485 0,-1.068 -0.098,-1.651l-0.294,0.485l-0.295,-0.388l-0.393,0.195c-0.687,0.874 -1.571,1.651 -2.258,2.721l-0.294,0.388l-3.143,2.721c-0.981,0.874 -1.865,1.166 -3.141,0.68c-1.081,-0.389 -2.063,-0.875 -2.652,-1.943c-0.098,-0.195 -0.196,-0.389 -0.392,-0.487c-1.669,-1.457 -1.964,-3.498 -2.456,-5.441c-0.196,-0.874 -0.293,-1.652 -0.392,-2.526c-0.099,-1.652 0.295,-3.304 0.589,-4.956c0.295,-1.554 0.687,-3.109 1.375,-4.567c0.392,-0.777 0.785,-1.555 1.375,-2.234c1.374,-1.653 2.945,-3.304 5.007,-4.178c0.197,-0 0.295,-0.098 0.393,-0.195c1.669,-1.36 3.534,-1.555 5.597,-1.652l0.392,-0c0,-0 0.099,-0.097 0.197,-0.097c0,-0.097 0.098,-0.195 0.098,-0.388c0,-2.43 0.197,-4.86 0.589,-7.192c0.196,-0.97 0.295,-1.943 0.393,-2.914c0.196,-1.069 0.491,-2.138 0.785,-3.207l1.768,-5.635c0.294,-0.972 0.786,-1.847 1.375,-2.624c0.294,-0.389 0.588,-0.582 0.981,-0.582c0.884,-0.196 1.866,-0.196 2.651,0.193c0.099,-0 0.099,0.098 0.197,0.195l2.847,1.555l-0.294,0.874Z" style="fill:#231f20;fill-rule:nonzero;"/><path d="M220.001,28.409c0.687,0.097 1.276,0.389 1.866,0.777c0.294,0.195 0.687,0.292 1.08,0.097c1.277,-0.582 2.553,-1.263 3.338,-2.429c0.884,-1.458 1.473,-3.012 2.063,-4.567c0.196,-0.68 0.294,-1.359 0.392,-2.04l-1.276,-1.166l-0.393,-0.194c-0.491,-0 -0.786,-0.195 -1.178,-0.389c-0.492,-0.291 -0.688,-0.291 -1.08,0.194c-0.197,0.195 -0.492,0.486 -0.589,0.778c-0.197,0.485 -0.59,0.777 -0.983,1.166c-0.392,0.292 -0.687,0.68 -0.981,1.069c-0.491,0.485 -0.786,1.068 -1.179,1.555c-1.08,1.359 -1.767,2.72 -2.356,4.275c0.295,0.485 0.786,0.874 1.276,0.874m-2.356,0.874c-0.688,0.681 -0.688,1.458 -1.081,2.139c-0.687,1.554 -0.883,3.206 -1.375,4.857c0.099,1.166 -0.392,2.332 -0.588,3.498c-0.098,0.584 -0.294,1.166 -0.197,1.653c0.099,0.583 0,1.068 -0.097,1.652c-0.198,0.777 -0.099,1.555 -0.099,2.332c0.099,0.874 -0.099,1.651 -0.099,2.525c0,0.292 0,0.584 0.099,0.973c0.295,1.555 0.589,3.012 0.589,4.664c0,0.389 0.099,0.874 0.196,1.359l0.59,1.847c0.098,0.681 0.393,1.263 0.687,1.749c0.491,0.68 0.687,1.457 0.982,2.234c0.295,0.973 0.884,1.847 1.865,2.236c0.884,0.388 1.768,0.292 2.652,-0.097c0.588,-0.195 1.08,-0.389 1.767,-0.486c0.295,-0 0.491,-0.195 0.688,-0.291l0.883,-0.487c0.294,0.487 -0.196,0.583 -0.196,0.875c-0.098,0.097 -0.196,0.291 -0.098,0.486c0,0.096 0.294,0.194 0.392,0.388c-0.589,0.486 -1.276,0.972 -2.061,1.166c-1.572,0.292 -3.143,0.292 -4.812,-0c-1.964,-0.292 -3.633,-1.262 -5.303,-2.137c-0.785,-0.291 -1.276,-0.875 -1.57,-1.555c-0.982,-1.652 -2.062,-3.304 -2.455,-5.15c-0.688,-2.818 -1.375,-5.538 -1.276,-8.453c0.097,-0.68 0,-1.361 -0.197,-2.041c-0.196,-0.778 0,-1.652 0.098,-2.526c0.099,-0.68 0.295,-1.263 0.099,-2.041c-0.099,-0.291 0,-0.583 0.097,-0.972c0.394,-2.137 0.786,-4.372 1.572,-6.51c0.294,-0.874 0.294,-1.846 0.883,-2.721c-0.295,-1.068 0.688,-1.846 0.688,-2.914c0,-0.389 0.295,-0.681 0.491,-0.973c0.294,-0.582 0.589,-0.97 0.884,-1.457c0.49,-1.068 1.178,-2.137 1.57,-3.303c0.491,-1.555 1.67,-2.624 2.651,-3.887c0.492,-0.583 1.179,-0.972 1.277,-1.847c0.295,-0.193 0.59,-0.485 0.982,-0.582c0.589,-0.195 1.178,-0.388 1.768,-0.68c0.686,-0.292 1.473,-0.486 2.356,-0.486c1.08,-0 2.16,-0.097 3.044,-0.584c0.687,-0.291 1.277,-0.193 1.865,0.292c0.295,0.292 0.688,0.486 1.081,0.681c0.392,0.193 0.687,0.389 0.883,0.777c0.295,0.389 0.688,0.582 0.982,0.971c0.295,0.195 0.491,0.486 0.687,0.681l-0.49,0.68c0.883,0.971 0.49,2.137 0.589,3.303c0,0.292 -0.393,0.292 -0.491,0.486c-0.197,0.487 -0.393,0.972 -0.492,1.457c-0.097,0.973 -0.588,1.847 -0.981,2.721c-0.196,0.389 -0.393,0.777 -0.491,1.166c-0.098,0.777 -0.589,1.264 -1.178,1.652c-0.884,0.68 -1.866,1.457 -2.848,2.041c-1.571,0.874 -3.24,1.263 -4.91,0.194l-1.669,-1.069l-0.883,-0.486Z" style="fill:#231f20;fill-rule:nonzero;"/><defs><linearGradient id="_Linear1" x1="0" y1="0" x2="1" y2="0" gradientUnits="userSpaceOnUse" gradientTransform="matrix(0.755793,9.37183,-9.37183,0.755793,40.1783,30.6326)"><stop offset="0" style="stop-color:#f36f21;stop-opacity:1"/><stop offset="0.96" style="stop-color:#ed135a;stop-opacity:1"/><stop offset="1" style="stop-color:#ed135a;stop-opacity:1"/></linearGradient><linearGradient id="_Linear2" x1="0" y1="0" x2="1" y2="0" gradientUnits="userSpaceOnUse" gradientTransform="matrix(5.84403,72.466,-72.466,5.84403,29.8997,-10.6462)"><stop offset="0" style="stop-color:#f36f21;stop-opacity:1"/><stop offset="0.96" style="stop-color:#ed135a;stop-opacity:1"/><stop offset="1" style="stop-color:#ed135a;stop-opacity:1"/></linearGradient></defs></svg>