<svg id="Layer_3" data-name="Layer 3" xmlns="http://www.w3.org/2000/svg" viewBox="0 0 369.89 184.94"><defs><style>.cls-1{fill:#24346a;}.cls-2{fill:#fff;}.cls-3{fill:#cf162c;}</style></defs><title>union_jack_flag_icon</title><rect class="cls-1" width="369.89" height="184.94"/><polygon class="cls-2" points="0 61.52 81.14 61.52 0 20.19 0 0 42.14 0 154.14 56.52 154.14 0 215.47 0 215.47 56.52 329.14 0 369.89 0 369.89 20.86 287.81 61.52 369.89 61.52 369.89 123.19 288.47 123.19 369.89 164.19 369.89 184.94 327.81 184.94 215.47 128.19 215.47 184.94 154.14 184.94 154.14 128.19 40.81 184.94 0 184.94 0 164.53 81.81 123.19 0 123.19 0 61.52"/><rect class="cls-3" y="74.19" width="369.89" height="36.67"/><rect class="cls-3" x="166.47" width="37.33" height="184.94"/><polygon class="cls-3" points="0 0 122.81 61.19 94.81 61.19 0 14.19 0 0"/><polygon class="cls-3" points="342.81 0 219.47 61.19 247.14 61.19 369.89 0 342.81 0"/><polygon class="cls-3" points="369.89 184.94 247.08 123.75 275.08 123.75 369.89 170.75 369.89 184.94"/><polygon class="cls-3" points="27.08 184.94 150.41 123.75 122.75 123.75 0 184.94 27.08 184.94"/></svg>